<svg xmlns="http://www.w3.org/2000/svg" xmlns:xlink="http://www.w3.org/1999/xlink" width="3780" zoomAndPan="magnify" viewBox="0 0 2835 1417.499962" height="1890" preserveAspectRatio="xMidYMid meet" version="1.0"><defs><g/><clipPath id="3950eca7dc"><path d="M 0.5 0 L 2834.5 0 L 2834.5 1417 L 0.5 1417 Z M 0.5 0 " clip-rule="nonzero"/></clipPath><clipPath id="4804a2fd64"><path d="M 0.5 0 L 2834.5 0 L 2834.5 1417 L 0.5 1417 Z M 0.5 0 " clip-rule="nonzero"/></clipPath><clipPath id="83ed05a9fa"><path d="M 257.914062 280 L 1165 280 L 1165 1210 L 257.914062 1210 Z M 257.914062 280 " clip-rule="nonzero"/></clipPath><clipPath id="d3e603f784"><rect x="0" width="1374" y="0" height="562"/></clipPath><clipPath id="b0af91ba88"><rect x="0" width="2835" y="0" height="1417"/></clipPath></defs><g clip-path="url(#3950eca7dc)"><path fill="#ffffff" d="M 0.5 0 L 2834.5 0 L 2834.5 1417 L 0.5 1417 Z M 0.5 0 " fill-opacity="1" fill-rule="nonzero"/><g transform="matrix(1, 0, 0, 1, 0, 0)"><g clip-path="url(#b0af91ba88)"><g clip-path="url(#4804a2fd64)"><path fill="#ffffff" d="M 0.5 0 L 2834.855469 0 L 2834.855469 1417.175781 L 0.5 1417.175781 Z M 0.5 0 " fill-opacity="1" fill-rule="nonzero"/></g><g clip-path="url(#83ed05a9fa)"><path fill="#ff3131" d="M 257.914062 651.265625 C 262.449219 640.140625 266.519531 628.800781 271.546875 617.90625 C 309.367188 535.976562 367.058594 471.4375 443.980469 424.636719 C 527.585938 373.769531 618.25 351.976562 716.03125 363.152344 C 783.011719 370.808594 845.023438 392.953125 899.136719 433.214844 C 1017.28125 521.117188 1076.257812 638.171875 1067.460938 786.722656 C 1064.425781 838.011719 1048.953125 886.085938 1023.851562 930.820312 C 987.757812 995.144531 936.457031 1043.929688 870.617188 1077.09375 C 801.257812 1112.027344 727.96875 1124.277344 651.800781 1108.125 C 545.039062 1085.480469 468.746094 1023.050781 423.683594 923.742188 C 396.699219 864.265625 390.511719 801.964844 405.335938 738.09375 C 432.855469 619.5 533.980469 539.539062 639.292969 527.957031 C 691.253906 522.242188 740.816406 530.410156 785.46875 557.472656 C 865.535156 606 907.519531 676.875 902.058594 771.960938 C 899.214844 821.503906 878.605469 864.242188 841.667969 897.558594 C 790.097656 944.074219 730.703125 962.144531 662.84375 939.511719 C 597.238281 917.628906 555.183594 848.949219 564.441406 785.519531 C 571.753906 735.414062 612.945312 695.078125 663.414062 691.167969 C 694.9375 688.726562 725.851562 708.402344 736.058594 738.238281 C 738.574219 745.582031 737.558594 757.40625 736.441406 763.238281 L 734.621094 758.773438 C 719.585938 725.09375 667.652344 722.28125 644.015625 748.113281 C 630.542969 762.839844 625.523438 780.003906 625.984375 799.597656 C 626.910156 838.835938 655.566406 872.769531 694.132812 879.546875 C 736.550781 887 771.8125 872.785156 800.464844 842.210938 C 837.53125 802.660156 844.128906 741.105469 818.820312 689.992188 C 779.597656 610.777344 690.792969 578.980469 610.589844 605.527344 C 516.128906 636.789062 458.363281 727.558594 469.640625 827 C 477.433594 895.726562 509.980469 951.449219 564.902344 993.105469 C 647.648438 1055.859375 762.167969 1060.570312 853.515625 1006.359375 C 958.59375 944 1013.257812 829.511719 994.460938 708.613281 C 982.1875 629.703125 945.078125 563.632812 884.472656 511.894531 C 802.613281 442.015625 707.207031 417.761719 602.230469 438.179688 C 493.015625 459.425781 409.765625 519.605469 353.886719 614.777344 C 308.878906 691.4375 293.429688 781.558594 308.929688 869.097656 C 326.503906 968.351562 374.929688 1050.039062 451.652344 1114.421875 C 513.25 1166.113281 584.566406 1196.085938 664.433594 1206.164062 C 712.691406 1212.253906 760.453125 1209.792969 807.753906 1199.386719 C 875.183594 1184.554688 936.367188 1155.886719 990.257812 1112.65625 C 1100.882812 1023.917969 1158.085938 907.929688 1163.800781 766.632812 C 1165.773438 717.816406 1158.492188 669.859375 1144.75 622.9375 C 1122.859375 548.195312 1085.675781 481.921875 1032.691406 424.976562 C 1031.824219 424.046875 1030.957031 423.117188 1030.085938 422.195312 C 825.089844 204.800781 467.769531 243.667969 317.050781 501.683594 C 270.324219 581.671875 257.914062 651.265625 257.914062 651.265625 Z M 257.914062 651.265625 " fill-opacity="1" fill-rule="nonzero"/></g><g transform="matrix(1, 0, 0, 1, 1214, 424)"><g clip-path="url(#d3e603f784)"><g fill="#000000" fill-opacity="1"><g transform="translate(1.186044, 288.640251)"><g><path d="M 214.515625 -207.125 L 214.515625 0 L 166.59375 0 L 166.59375 -84.921875 L 72.5 -84.921875 L 72.5 0 L 24.5625 0 L 24.5625 -207.125 L 72.5 -207.125 L 72.5 -125.453125 L 166.59375 -125.453125 L 166.59375 -207.125 Z M 214.515625 -207.125 "/></g></g></g><g fill="#000000" fill-opacity="1"><g transform="translate(217.164452, 288.640251)"><g><path d="M 24.5625 -207.125 L 72.5 -207.125 L 72.5 0 L 24.5625 0 Z M 24.5625 -207.125 "/></g></g></g><g fill="#000000" fill-opacity="1"><g transform="translate(291.127056, 288.640251)"><g><path d="M 114.21875 -207.125 C 132.5625 -207.125 148.488281 -204.066406 162 -197.953125 C 175.507812 -191.835938 185.914062 -183.15625 193.21875 -171.90625 C 200.519531 -160.664062 204.171875 -147.351562 204.171875 -131.96875 C 204.171875 -116.78125 200.519531 -103.515625 193.21875 -92.171875 C 185.914062 -80.828125 175.507812 -72.144531 162 -66.125 C 148.488281 -60.113281 132.5625 -57.109375 114.21875 -57.109375 L 72.5 -57.109375 L 72.5 0 L 24.5625 0 L 24.5625 -207.125 Z M 111.546875 -96.171875 C 125.953125 -96.171875 136.898438 -99.273438 144.390625 -105.484375 C 151.890625 -111.703125 155.640625 -120.53125 155.640625 -131.96875 C 155.640625 -143.601562 151.890625 -152.523438 144.390625 -158.734375 C 136.898438 -164.953125 125.953125 -168.0625 111.546875 -168.0625 L 72.5 -168.0625 L 72.5 -96.171875 Z M 111.546875 -96.171875 "/></g></g></g><g fill="#000000" fill-opacity="1"><g transform="translate(481.660812, 288.640251)"><g><path d="M 214.515625 -207.125 L 214.515625 0 L 175.171875 0 L 71.90625 -125.75 L 71.90625 0 L 24.5625 0 L 24.5625 -207.125 L 64.203125 -207.125 L 167.171875 -81.375 L 167.171875 -207.125 Z M 214.515625 -207.125 "/></g></g></g><g fill="#000000" fill-opacity="1"><g transform="translate(697.63922, 288.640251)"><g><path d="M 124.859375 3.546875 C 103.359375 3.546875 83.976562 -1.085938 66.71875 -10.359375 C 49.457031 -19.628906 35.945312 -32.398438 26.1875 -48.671875 C 16.425781 -64.941406 11.546875 -83.238281 11.546875 -103.5625 C 11.546875 -123.875 16.425781 -142.164062 26.1875 -158.4375 C 35.945312 -174.71875 49.457031 -187.492188 66.71875 -196.765625 C 83.976562 -206.035156 103.359375 -210.671875 124.859375 -210.671875 C 146.367188 -210.671875 165.703125 -206.035156 182.859375 -196.765625 C 200.023438 -187.492188 213.535156 -174.71875 223.390625 -158.4375 C 233.253906 -142.164062 238.1875 -123.875 238.1875 -103.5625 C 238.1875 -83.238281 233.253906 -64.941406 223.390625 -48.671875 C 213.535156 -32.398438 200.023438 -19.628906 182.859375 -10.359375 C 165.703125 -1.085938 146.367188 3.546875 124.859375 3.546875 Z M 124.859375 -37.28125 C 137.097656 -37.28125 148.144531 -40.085938 158 -45.703125 C 167.863281 -51.328125 175.609375 -59.171875 181.234375 -69.234375 C 186.859375 -79.296875 189.671875 -90.738281 189.671875 -103.5625 C 189.671875 -116.382812 186.859375 -127.820312 181.234375 -137.875 C 175.609375 -147.9375 167.863281 -155.78125 158 -161.40625 C 148.144531 -167.03125 137.097656 -169.84375 124.859375 -169.84375 C 112.628906 -169.84375 101.582031 -167.03125 91.71875 -161.40625 C 81.863281 -155.78125 74.125 -147.9375 68.5 -137.875 C 62.875 -127.820312 60.0625 -116.382812 60.0625 -103.5625 C 60.0625 -90.738281 62.875 -79.296875 68.5 -69.234375 C 74.125 -59.171875 81.863281 -51.328125 91.71875 -45.703125 C 101.582031 -40.085938 112.628906 -37.28125 124.859375 -37.28125 Z M 124.859375 -37.28125 "/></g></g></g><g fill="#000000" fill-opacity="1"><g transform="translate(924.268783, 288.640251)"><g><path d="M 92.609375 3.546875 C 76.242188 3.546875 60.414062 1.328125 45.125 -3.109375 C 29.832031 -7.546875 17.550781 -13.316406 8.28125 -20.421875 L 24.5625 -56.515625 C 33.4375 -50.003906 43.988281 -44.773438 56.21875 -40.828125 C 68.445312 -36.890625 80.675781 -34.921875 92.90625 -34.921875 C 106.519531 -34.921875 116.582031 -36.941406 123.09375 -40.984375 C 129.601562 -45.023438 132.859375 -50.398438 132.859375 -57.109375 C 132.859375 -62.035156 130.929688 -66.125 127.078125 -69.375 C 123.234375 -72.632812 118.300781 -75.25 112.28125 -77.21875 C 106.269531 -79.195312 98.132812 -81.367188 87.875 -83.734375 C 72.09375 -87.484375 59.171875 -91.234375 49.109375 -94.984375 C 39.054688 -98.734375 30.425781 -104.75 23.21875 -113.03125 C 16.019531 -121.3125 12.421875 -132.359375 12.421875 -146.171875 C 12.421875 -158.203125 15.675781 -169.097656 22.1875 -178.859375 C 28.695312 -188.628906 38.507812 -196.375 51.625 -202.09375 C 64.75 -207.8125 80.78125 -210.671875 99.71875 -210.671875 C 112.9375 -210.671875 125.851562 -209.09375 138.46875 -205.9375 C 151.09375 -202.78125 162.140625 -198.242188 171.609375 -192.328125 L 156.828125 -155.9375 C 137.691406 -166.78125 118.554688 -172.203125 99.421875 -172.203125 C 86.003906 -172.203125 76.085938 -170.03125 69.671875 -165.6875 C 63.265625 -161.351562 60.0625 -155.632812 60.0625 -148.53125 C 60.0625 -141.4375 63.757812 -136.160156 71.15625 -132.703125 C 78.550781 -129.253906 89.847656 -125.851562 105.046875 -122.5 C 120.828125 -118.75 133.742188 -115 143.796875 -111.25 C 153.859375 -107.507812 162.488281 -101.59375 169.6875 -93.5 C 176.894531 -85.414062 180.5 -74.46875 180.5 -60.65625 C 180.5 -48.820312 177.191406 -38.019531 170.578125 -28.25 C 163.972656 -18.488281 154.0625 -10.75 140.84375 -5.03125 C 127.625 0.6875 111.546875 3.546875 92.609375 3.546875 Z M 92.609375 3.546875 "/></g></g></g><g fill="#000000" fill-opacity="1"><g transform="translate(1089.949921, 288.640251)"><g><path d="M 24.5625 -207.125 L 72.5 -207.125 L 72.5 0 L 24.5625 0 Z M 24.5625 -207.125 "/></g></g></g><g fill="#000000" fill-opacity="1"><g transform="translate(1163.912525, 288.640251)"><g><path d="M 92.609375 3.546875 C 76.242188 3.546875 60.414062 1.328125 45.125 -3.109375 C 29.832031 -7.546875 17.550781 -13.316406 8.28125 -20.421875 L 24.5625 -56.515625 C 33.4375 -50.003906 43.988281 -44.773438 56.21875 -40.828125 C 68.445312 -36.890625 80.675781 -34.921875 92.90625 -34.921875 C 106.519531 -34.921875 116.582031 -36.941406 123.09375 -40.984375 C 129.601562 -45.023438 132.859375 -50.398438 132.859375 -57.109375 C 132.859375 -62.035156 130.929688 -66.125 127.078125 -69.375 C 123.234375 -72.632812 118.300781 -75.25 112.28125 -77.21875 C 106.269531 -79.195312 98.132812 -81.367188 87.875 -83.734375 C 72.09375 -87.484375 59.171875 -91.234375 49.109375 -94.984375 C 39.054688 -98.734375 30.425781 -104.75 23.21875 -113.03125 C 16.019531 -121.3125 12.421875 -132.359375 12.421875 -146.171875 C 12.421875 -158.203125 15.675781 -169.097656 22.1875 -178.859375 C 28.695312 -188.628906 38.507812 -196.375 51.625 -202.09375 C 64.75 -207.8125 80.78125 -210.671875 99.71875 -210.671875 C 112.9375 -210.671875 125.851562 -209.09375 138.46875 -205.9375 C 151.09375 -202.78125 162.140625 -198.242188 171.609375 -192.328125 L 156.828125 -155.9375 C 137.691406 -166.78125 118.554688 -172.203125 99.421875 -172.203125 C 86.003906 -172.203125 76.085938 -170.03125 69.671875 -165.6875 C 63.265625 -161.351562 60.0625 -155.632812 60.0625 -148.53125 C 60.0625 -141.4375 63.757812 -136.160156 71.15625 -132.703125 C 78.550781 -129.253906 89.847656 -125.851562 105.046875 -122.5 C 120.828125 -118.75 133.742188 -115 143.796875 -111.25 C 153.859375 -107.507812 162.488281 -101.59375 169.6875 -93.5 C 176.894531 -85.414062 180.5 -74.46875 180.5 -60.65625 C 180.5 -48.820312 177.191406 -38.019531 170.578125 -28.25 C 163.972656 -18.488281 154.0625 -10.75 140.84375 -5.03125 C 127.625 0.6875 111.546875 3.546875 92.609375 3.546875 Z M 92.609375 3.546875 "/></g></g></g><g fill="#000000" fill-opacity="1"><g transform="translate(1.186044, 485.35911)"><g><path d="M 120.875 3.46875 C 100.25 3.46875 81.597656 -1.007812 64.921875 -9.96875 C 48.242188 -18.9375 35.132812 -31.375 25.59375 -47.28125 C 16.050781 -63.1875 11.28125 -81.160156 11.28125 -101.203125 C 11.28125 -121.253906 16.050781 -139.234375 25.59375 -155.140625 C 35.132812 -171.046875 48.242188 -183.476562 64.921875 -192.4375 C 81.597656 -201.40625 100.34375 -205.890625 121.15625 -205.890625 C 138.707031 -205.890625 154.566406 -202.804688 168.734375 -196.640625 C 182.898438 -190.472656 194.800781 -181.601562 204.4375 -170.03125 L 174.375 -142.265625 C 160.6875 -158.078125 143.71875 -165.984375 123.46875 -165.984375 C 110.945312 -165.984375 99.769531 -163.234375 89.9375 -157.734375 C 80.101562 -152.242188 72.4375 -144.582031 66.9375 -134.75 C 61.445312 -124.914062 58.703125 -113.734375 58.703125 -101.203125 C 58.703125 -88.671875 61.445312 -77.488281 66.9375 -67.65625 C 72.4375 -57.832031 80.101562 -50.171875 89.9375 -44.671875 C 99.769531 -39.179688 110.945312 -36.4375 123.46875 -36.4375 C 143.71875 -36.4375 160.6875 -44.4375 174.375 -60.4375 L 204.4375 -32.671875 C 194.800781 -20.910156 182.847656 -11.945312 168.578125 -5.78125 C 154.316406 0.382812 138.414062 3.46875 120.875 3.46875 Z M 120.875 3.46875 "/></g></g></g><g fill="#000000" fill-opacity="1"><g transform="translate(185.137093, 485.35911)"><g><path d="M 94.84375 2.3125 C 78.457031 2.3125 63.757812 -1.109375 50.75 -7.953125 C 37.738281 -14.796875 27.566406 -24.289062 20.234375 -36.4375 C 12.910156 -48.582031 9.25 -62.363281 9.25 -77.78125 C 9.25 -93.207031 12.910156 -106.992188 20.234375 -119.140625 C 27.566406 -131.285156 37.738281 -140.78125 50.75 -147.625 C 63.757812 -154.46875 78.457031 -157.890625 94.84375 -157.890625 C 111.226562 -157.890625 125.878906 -154.46875 138.796875 -147.625 C 151.710938 -140.78125 161.832031 -131.285156 169.15625 -119.140625 C 176.488281 -106.992188 180.15625 -93.207031 180.15625 -77.78125 C 180.15625 -62.363281 176.488281 -48.582031 169.15625 -36.4375 C 161.832031 -24.289062 151.710938 -14.796875 138.796875 -7.953125 C 125.878906 -1.109375 111.226562 2.3125 94.84375 2.3125 Z M 94.84375 -34.703125 C 106.414062 -34.703125 115.910156 -38.601562 123.328125 -46.40625 C 130.753906 -54.21875 134.46875 -64.675781 134.46875 -77.78125 C 134.46875 -90.894531 130.753906 -101.351562 123.328125 -109.15625 C 115.910156 -116.96875 106.414062 -120.875 94.84375 -120.875 C 83.28125 -120.875 73.738281 -116.96875 66.21875 -109.15625 C 58.695312 -101.351562 54.9375 -90.894531 54.9375 -77.78125 C 54.9375 -64.675781 58.695312 -54.21875 66.21875 -46.40625 C 73.738281 -38.601562 83.28125 -34.703125 94.84375 -34.703125 Z M 94.84375 -34.703125 "/></g></g></g><g fill="#000000" fill-opacity="1"><g transform="translate(351.984966, 485.35911)"><g><path d="M 115.375 -157.890625 C 134.65625 -157.890625 150.222656 -152.101562 162.078125 -140.53125 C 173.929688 -128.96875 179.859375 -111.8125 179.859375 -89.0625 L 179.859375 0 L 134.75 0 L 134.75 -82.125 C 134.75 -94.457031 132.050781 -103.660156 126.65625 -109.734375 C 121.257812 -115.804688 113.453125 -118.84375 103.234375 -118.84375 C 91.859375 -118.84375 82.796875 -115.320312 76.046875 -108.28125 C 69.304688 -101.25 65.9375 -90.796875 65.9375 -76.921875 L 65.9375 0 L 20.828125 0 L 20.828125 -155.578125 L 63.90625 -155.578125 L 63.90625 -137.359375 C 69.882812 -143.910156 77.304688 -148.96875 86.171875 -152.53125 C 95.035156 -156.101562 104.769531 -157.890625 115.375 -157.890625 Z M 115.375 -157.890625 "/></g></g></g><g fill="#000000" fill-opacity="1"><g transform="translate(529.242857, 485.35911)"><g/></g></g><g fill="#000000" fill-opacity="1"><g transform="translate(588.520339, 485.35911)"><g><path d="M 122.03125 3.46875 C 101.019531 3.46875 82.078125 -1.0625 65.203125 -10.125 C 48.335938 -19.1875 35.132812 -31.664062 25.59375 -47.5625 C 16.050781 -63.46875 11.28125 -81.347656 11.28125 -101.203125 C 11.28125 -121.066406 16.050781 -138.945312 25.59375 -154.84375 C 35.132812 -170.75 48.335938 -183.234375 65.203125 -192.296875 C 82.078125 -201.359375 101.019531 -205.890625 122.03125 -205.890625 C 143.039062 -205.890625 161.929688 -201.359375 178.703125 -192.296875 C 195.472656 -183.234375 208.675781 -170.75 218.3125 -154.84375 C 227.957031 -138.945312 232.78125 -121.066406 232.78125 -101.203125 C 232.78125 -81.347656 227.957031 -63.46875 218.3125 -47.5625 C 208.675781 -31.664062 195.472656 -19.1875 178.703125 -10.125 C 161.929688 -1.0625 143.039062 3.46875 122.03125 3.46875 Z M 122.03125 -36.4375 C 133.976562 -36.4375 144.769531 -39.179688 154.40625 -44.671875 C 164.050781 -50.171875 171.617188 -57.832031 177.109375 -67.65625 C 182.609375 -77.488281 185.359375 -88.671875 185.359375 -101.203125 C 185.359375 -113.734375 182.609375 -124.914062 177.109375 -134.75 C 171.617188 -144.582031 164.050781 -152.242188 154.40625 -157.734375 C 144.769531 -163.234375 133.976562 -165.984375 122.03125 -165.984375 C 110.082031 -165.984375 99.285156 -163.234375 89.640625 -157.734375 C 80.003906 -152.242188 72.4375 -144.582031 66.9375 -134.75 C 61.445312 -124.914062 58.703125 -113.734375 58.703125 -101.203125 C 58.703125 -88.671875 61.445312 -77.488281 66.9375 -67.65625 C 72.4375 -57.832031 80.003906 -50.171875 89.640625 -44.671875 C 99.285156 -39.179688 110.082031 -36.4375 122.03125 -36.4375 Z M 122.03125 -36.4375 "/></g></g></g><g fill="#000000" fill-opacity="1"><g transform="translate(810.020933, 485.35911)"><g><path d="M 73.15625 2.3125 C 60.238281 2.3125 47.609375 0.722656 35.265625 -2.453125 C 22.929688 -5.640625 13.101562 -9.640625 5.78125 -14.453125 L 20.828125 -46.84375 C 27.765625 -42.40625 36.144531 -38.789062 45.96875 -36 C 55.800781 -33.207031 65.441406 -31.8125 74.890625 -31.8125 C 93.984375 -31.8125 103.53125 -36.535156 103.53125 -45.984375 C 103.53125 -50.410156 100.925781 -53.585938 95.71875 -55.515625 C 90.507812 -57.441406 82.507812 -59.082031 71.71875 -60.4375 C 58.988281 -62.363281 48.476562 -64.578125 40.1875 -67.078125 C 31.90625 -69.585938 24.726562 -74.023438 18.65625 -80.390625 C 12.582031 -86.753906 9.546875 -95.816406 9.546875 -107.578125 C 9.546875 -117.398438 12.390625 -126.117188 18.078125 -133.734375 C 23.765625 -141.359375 32.050781 -147.289062 42.9375 -151.53125 C 53.832031 -155.769531 66.703125 -157.890625 81.546875 -157.890625 C 92.535156 -157.890625 103.472656 -156.679688 114.359375 -154.265625 C 125.253906 -151.859375 134.269531 -148.535156 141.40625 -144.296875 L 126.375 -112.203125 C 112.6875 -119.910156 97.742188 -123.765625 81.546875 -123.765625 C 71.910156 -123.765625 64.679688 -122.414062 59.859375 -119.71875 C 55.035156 -117.019531 52.625 -113.550781 52.625 -109.3125 C 52.625 -104.488281 55.226562 -101.113281 60.4375 -99.1875 C 65.644531 -97.257812 73.9375 -95.425781 85.3125 -93.6875 C 98.03125 -91.570312 108.4375 -89.304688 116.53125 -86.890625 C 124.632812 -84.484375 131.671875 -80.097656 137.640625 -73.734375 C 143.617188 -67.378906 146.609375 -58.515625 146.609375 -47.140625 C 146.609375 -37.492188 143.71875 -28.910156 137.9375 -21.390625 C 132.15625 -13.878906 123.71875 -8.050781 112.625 -3.90625 C 101.539062 0.238281 88.382812 2.3125 73.15625 2.3125 Z M 73.15625 2.3125 "/></g></g></g><g fill="#000000" fill-opacity="1"><g transform="translate(941.011981, 485.35911)"><g><path d="M 96 2.3125 C 79.425781 2.3125 64.535156 -1.109375 51.328125 -7.953125 C 38.117188 -14.796875 27.800781 -24.289062 20.375 -36.4375 C 12.957031 -48.582031 9.25 -62.363281 9.25 -77.78125 C 9.25 -93.207031 12.957031 -106.992188 20.375 -119.140625 C 27.800781 -131.285156 38.117188 -140.78125 51.328125 -147.625 C 64.535156 -154.46875 79.425781 -157.890625 96 -157.890625 C 112.382812 -157.890625 126.695312 -154.46875 138.9375 -147.625 C 151.1875 -140.78125 160.109375 -130.992188 165.703125 -118.265625 L 130.703125 -99.46875 C 122.609375 -113.738281 110.945312 -120.875 95.71875 -120.875 C 83.957031 -120.875 74.21875 -117.015625 66.5 -109.296875 C 58.789062 -101.585938 54.9375 -91.082031 54.9375 -77.78125 C 54.9375 -64.476562 58.789062 -53.972656 66.5 -46.265625 C 74.21875 -38.554688 83.957031 -34.703125 95.71875 -34.703125 C 111.132812 -34.703125 122.796875 -41.832031 130.703125 -56.09375 L 165.703125 -37.015625 C 160.109375 -24.671875 151.1875 -15.03125 138.9375 -8.09375 C 126.695312 -1.15625 112.382812 2.3125 96 2.3125 Z M 96 2.3125 "/></g></g></g><g fill="#000000" fill-opacity="1"><g transform="translate(1089.353118, 485.35911)"><g><path d="M 83.578125 -157.890625 C 107.671875 -157.890625 126.175781 -152.148438 139.09375 -140.671875 C 152.007812 -129.203125 158.46875 -111.90625 158.46875 -88.78125 L 158.46875 0 L 116.25 0 L 116.25 -19.375 C 107.769531 -4.914062 91.960938 2.3125 68.828125 2.3125 C 56.867188 2.3125 46.503906 0.289062 37.734375 -3.75 C 28.960938 -7.800781 22.265625 -13.394531 17.640625 -20.53125 C 13.015625 -27.664062 10.703125 -35.765625 10.703125 -44.828125 C 10.703125 -59.285156 16.144531 -70.65625 27.03125 -78.9375 C 37.925781 -87.226562 54.75 -91.375 77.5 -91.375 L 113.359375 -91.375 C 113.359375 -101.207031 110.367188 -108.773438 104.390625 -114.078125 C 98.410156 -119.378906 89.445312 -122.03125 77.5 -122.03125 C 69.207031 -122.03125 61.0625 -120.726562 53.0625 -118.125 C 45.0625 -115.519531 38.265625 -112.003906 32.671875 -107.578125 L 16.484375 -139.09375 C 24.960938 -145.070312 35.128906 -149.695312 46.984375 -152.96875 C 58.847656 -156.25 71.046875 -157.890625 83.578125 -157.890625 Z M 80.09375 -28.046875 C 87.8125 -28.046875 94.65625 -29.828125 100.625 -33.390625 C 106.601562 -36.960938 110.847656 -42.21875 113.359375 -49.15625 L 113.359375 -65.0625 L 82.40625 -65.0625 C 63.90625 -65.0625 54.65625 -58.988281 54.65625 -46.84375 C 54.65625 -41.0625 56.921875 -36.484375 61.453125 -33.109375 C 65.984375 -29.734375 72.195312 -28.046875 80.09375 -28.046875 Z M 80.09375 -28.046875 "/></g></g></g><g fill="#000000" fill-opacity="1"><g transform="translate(1245.212643, 485.35911)"><g><path d="M 63.90625 -135.046875 C 69.300781 -142.566406 76.578125 -148.253906 85.734375 -152.109375 C 94.890625 -155.960938 105.445312 -157.890625 117.40625 -157.890625 L 117.40625 -116.25 C 112.394531 -116.632812 109.019531 -116.828125 107.28125 -116.828125 C 94.363281 -116.828125 84.242188 -113.210938 76.921875 -105.984375 C 69.597656 -98.753906 65.9375 -87.910156 65.9375 -73.453125 L 65.9375 0 L 20.828125 0 L 20.828125 -155.578125 L 63.90625 -155.578125 Z M 63.90625 -135.046875 "/></g></g></g></g></g></g></g></g></svg>