<?xml version="1.0" encoding="UTF-8" standalone="no"?>
<svg
   width="3780"
   zoomAndPan="magnify"
   viewBox="0 0 2835 1417.5"
   height="1890"
   preserveAspectRatio="xMidYMid"
   version="1.0"
   id="svg62"
   xmlns="http://www.w3.org/2000/svg"
   xmlns:svg="http://www.w3.org/2000/svg">
  <defs
     id="defs4">
    <clipPath
       id="3950eca7dc">
      <path
         d="m 0.5,0 h 2834 V 1417 H 0.5 Z m 0,0"
         clip-rule="nonzero"
         id="path1" />
    </clipPath>
    <clipPath
       id="83ed05a9fa">
      <path
         d="M 257.91406,280 H 1165 v 930 H 257.91406 Z m 0,0"
         clip-rule="nonzero"
         id="path3" />
    </clipPath>
    <clipPath
       id="d3e603f784">
      <rect
         x="0"
         width="1374"
         y="0"
         height="562"
         id="rect3" />
    </clipPath>
    <clipPath
       id="b0af91ba88">
      <rect
         x="0"
         width="2835"
         y="0"
         height="1417"
         id="rect4" />
    </clipPath>
  </defs>
  <g
     clip-path="url(#3950eca7dc)"
     id="g62">
    <g
       id="g61">
      <g
         clip-path="url(#b0af91ba88)"
         id="g60">
        <g
           clip-path="url(#83ed05a9fa)"
           id="g6"
           style="display:inline">
          <path
             fill="#ff3131"
             d="m 257.91406,651.26562 c 4.53516,-11.125 8.60547,-22.46484 13.63281,-33.35937 37.82032,-81.92969 95.51172,-146.46875 172.4336,-193.26953 83.60547,-50.86719 174.26953,-72.66016 272.05078,-61.48438 66.98047,7.65625 128.99219,29.80078 183.10547,70.0625 118.14448,87.90235 177.12108,204.95703 168.32418,353.50782 -3.0351,51.28906 -18.5078,99.36328 -43.6093,144.09765 -36.09379,64.32422 -87.39457,113.10939 -153.23441,146.27349 -69.35938,34.9335 -142.64844,47.1835 -218.81641,31.0312 C 545.03906,1085.4805 468.74609,1023.0508 423.68359,923.74219 396.69922,864.26562 390.51172,801.96484 405.33594,738.09375 432.85547,619.5 533.98047,539.53906 639.29297,527.95703 c 51.96094,-5.71484 101.52344,2.45313 146.17578,29.51563 C 865.53516,606 907.51953,676.875 902.05859,771.96094 c -2.84375,49.54297 -23.45312,92.28125 -60.39062,125.59765 -51.57031,46.51563 -110.96485,64.58594 -178.82422,41.95313 -65.60547,-21.88281 -107.66016,-90.5625 -98.40234,-153.99219 7.3125,-50.10547 48.5039,-90.44141 98.97265,-94.35156 31.52344,-2.44141 62.4375,17.23437 72.64453,47.07031 2.51563,7.34375 1.5,19.16797 0.38282,25 l -1.82032,-4.46484 c -15.03515,-33.67969 -66.96875,-36.49219 -90.60547,-10.66016 -13.47265,14.72656 -18.49218,31.89063 -18.03125,51.48438 0.92579,39.23828 29.58204,73.17187 68.14844,79.94921 C 736.55078,887 771.8125,872.78516 800.46484,842.21094 837.53125,802.66016 844.12891,741.10547 818.82031,689.99219 779.59766,610.77734 690.79297,578.98047 610.58984,605.52734 516.12891,636.78906 458.36328,727.55859 469.64062,827 c 7.79297,68.72656 40.33985,124.44922 95.26172,166.10547 82.7461,62.75393 197.26563,67.46483 288.61328,13.25393 C 958.59375,944 1013.2578,829.51172 994.46094,708.61328 982.1875,629.70312 945.07812,563.63281 884.47266,511.89453 802.61328,442.01562 707.20703,417.76172 602.23047,438.17969 493.01562,459.42578 409.76562,519.60547 353.88672,614.77734 c -45.00781,76.66016 -60.45703,166.78125 -44.95703,254.32032 17.57422,99.2539 66,180.94144 142.72265,245.32424 61.59766,51.6914 132.91407,81.664 212.78125,91.7422 48.25782,6.0898 96.01953,3.6289 143.32032,-6.7774 67.42968,-14.832 128.61328,-43.5 182.5039,-86.7304 110.62499,-88.7383 167.82809,-204.72661 173.54299,-346.02349 1.9726,-48.8164 -5.3086,-96.77344 -19.0508,-143.69531 -21.8906,-74.74219 -59.0742,-141.01563 -112.0586,-197.96094 -0.8672,-0.92969 -1.7344,-1.85937 -2.6055,-2.78125 C 825.08984,204.80078 467.76953,243.66797 317.05078,501.68359 270.32422,581.67187 257.91406,651.26562 257.91406,651.26562 Z m 0,0"
             fill-opacity="1"
             fill-rule="nonzero"
             id="path6" />
        </g>
        <g
           transform="translate(1214,424)"
           id="g59"
           style="fill:#ffffff">
          <g
             clip-path="url(#d3e603f784)"
             id="g58"
             style="fill:#ffffff">
            <g
               fill="#000000"
               fill-opacity="1"
               id="g9"
               style="fill:#ffffff">
              <g
                 transform="translate(1.186044,288.64025)"
                 id="g8"
                 style="fill:#ffffff">
                <g
                   id="g7"
                   style="fill:#ffffff">
                  <path
                     d="M 214.51562,-207.125 V 0 H 166.59375 V -84.921875 H 72.5 V 0 H 24.5625 V -207.125 H 72.5 v 81.67187 h 94.09375 V -207.125 Z m 0,0"
                     id="path7"
                     style="fill:#ffffff" />
                </g>
              </g>
            </g>
            <g
               fill="#000000"
               fill-opacity="1"
               id="g12"
               style="fill:#ffffff">
              <g
                 transform="translate(217.16445,288.64025)"
                 id="g11"
                 style="fill:#ffffff">
                <g
                   id="g10"
                   style="fill:#ffffff">
                  <path
                     d="M 24.5625,-207.125 H 72.5 V 0 H 24.5625 Z m 0,0"
                     id="path9"
                     style="fill:#ffffff" />
                </g>
              </g>
            </g>
            <g
               fill="#000000"
               fill-opacity="1"
               id="g15"
               style="fill:#ffffff">
              <g
                 transform="translate(291.12706,288.64025)"
                 id="g14"
                 style="fill:#ffffff">
                <g
                   id="g13"
                   style="fill:#ffffff">
                  <path
                     d="m 114.21875,-207.125 c 18.34375,0 34.26953,3.05859 47.78125,9.17188 13.50781,6.11718 23.91406,14.79687 31.21875,26.04687 7.30078,11.24219 10.95312,24.55469 10.95312,39.9375 0,15.1875 -3.65234,28.45312 -10.95312,39.796875 -7.30469,11.34375 -17.71094,20.027344 -31.21875,26.046875 -13.51172,6.011719 -29.4375,9.015625 -47.78125,9.015625 H 72.5 V 0 H 24.5625 v -207.125 z m -2.67187,110.953125 c 14.40625,0 25.35156,-3.101563 32.84374,-9.312505 7.5,-6.21875 11.25,-15.04687 11.25,-26.48437 0,-11.63281 -3.75,-20.55469 -11.25,-26.76562 -7.49218,-6.21875 -18.43749,-9.32813 -32.84374,-9.32813 H 72.5 v 71.890625 z m 0,0"
                     id="path12"
                     style="fill:#ffffff" />
                </g>
              </g>
            </g>
            <g
               fill="#000000"
               fill-opacity="1"
               id="g18"
               style="fill:#ffffff">
              <g
                 transform="translate(481.66081,288.64025)"
                 id="g17"
                 style="fill:#ffffff">
                <g
                   id="g16"
                   style="fill:#ffffff">
                  <path
                     d="M 214.51562,-207.125 V 0 H 175.17187 L 71.90625,-125.75 V 0 H 24.5625 v -207.125 h 39.640625 l 102.968745,125.75 v -125.75 z m 0,0"
                     id="path15"
                     style="fill:#ffffff" />
                </g>
              </g>
            </g>
            <g
               fill="#000000"
               fill-opacity="1"
               id="g21"
               style="fill:#ffffff">
              <g
                 transform="translate(697.63922,288.64025)"
                 id="g20"
                 style="fill:#ffffff">
                <g
                   id="g19"
                   style="fill:#ffffff">
                  <path
                     d="m 124.85938,3.546875 c -21.5,0 -40.882818,-4.632813 -58.14063,-13.90625 -17.261719,-9.269531 -30.773438,-22.039063 -40.53125,-38.3125 -9.761719,-16.269531 -14.640625,-34.566406 -14.640625,-54.890625 0,-20.3125 4.878906,-38.60156 14.640625,-54.875 9.757812,-16.28125 23.269531,-29.05469 40.53125,-38.32812 17.257812,-9.26954 36.64063,-13.90625 58.14063,-13.90625 21.50781,0 40.84374,4.63671 57.99999,13.90625 17.16407,9.27343 30.67579,22.04687 40.53125,38.32812 9.86329,16.27344 14.79688,34.5625 14.79688,54.875 0,20.324219 -4.93359,38.621094 -14.79688,54.890625 -9.85546,16.273437 -23.36718,29.042969 -40.53125,38.3125 -17.15625,9.273437 -36.49218,13.90625 -57.99999,13.90625 z m 0,-40.828125 c 12.23828,0 23.28515,-2.804688 33.14062,-8.421875 9.86328,-5.625 17.60937,-13.46875 23.23437,-23.53125 5.625,-10.0625 8.4375,-21.503906 8.4375,-34.328125 0,-12.82031 -2.8125,-24.25781 -8.4375,-34.3125 -5.625,-10.0625 -13.37109,-17.90625 -23.23437,-23.53125 -9.85547,-5.625 -20.90234,-8.4375 -33.14062,-8.4375 -12.23047,0 -23.27735,2.8125 -33.14063,8.4375 -9.855469,5.625 -17.59375,13.46875 -23.21875,23.53125 -5.625,10.05469 -8.4375,21.49219 -8.4375,34.3125 0,12.824219 2.8125,24.265625 8.4375,34.328125 5.625,10.0625 13.363281,17.90625 23.21875,23.53125 9.86328,5.617187 20.91016,8.421875 33.14063,8.421875 z m 0,0"
                     id="path18"
                     style="fill:#ffffff" />
                </g>
              </g>
            </g>
            <g
               fill="#000000"
               fill-opacity="1"
               id="g24"
               style="fill:#ffffff">
              <g
                 transform="translate(924.26878,288.64025)"
                 id="g23"
                 style="fill:#ffffff">
                <g
                   id="g22"
                   style="fill:#ffffff">
                  <path
                     d="m 92.609375,3.546875 c -16.367187,0 -32.195313,-2.21875 -47.484375,-6.65625 -15.292969,-4.4375 -27.574219,-10.207031 -36.84375,-17.3125 l 16.28125,-36.09375 c 8.875,6.511719 19.425781,11.742187 31.65625,15.6875 12.226562,3.9375 24.457031,5.90625 36.6875,5.90625 13.61328,0 23.67578,-2.019531 30.1875,-6.0625 6.50781,-4.039063 9.76562,-9.414063 9.76562,-16.125 0,-4.925781 -1.92968,-9.015625 -5.78124,-12.265625 -3.84375,-3.257812 -8.77735,-5.875 -14.79688,-7.84375 -6.01172,-1.976562 -14.148438,-4.148438 -24.40625,-6.515625 -15.78125,-3.75 -28.703125,-7.5 -38.765625,-11.25 -10.054687,-3.75 -18.683594,-9.765625 -25.890625,-18.046875 -7.199219,-8.28125 -10.796875,-19.32812 -10.796875,-33.14062 0,-12.03125 3.253906,-22.92579 9.765625,-32.6875 6.507812,-9.76954 16.320312,-17.51563 29.4375,-23.23438 13.125,-5.71875 29.15625,-8.57812 48.09375,-8.57812 13.21875,0 26.13281,1.57812 38.75,4.73437 12.625,3.15625 23.67187,7.69531 33.14062,13.60938 l -14.78125,36.39062 c -19.13671,-10.84375 -38.27343,-16.26562 -57.406245,-16.26562 -13.417969,0 -23.335937,2.17187 -29.75,6.51562 -6.40625,4.33594 -9.609375,10.05469 -9.609375,17.15625 0,7.09375 3.695312,12.37109 11.09375,15.82813 7.394531,3.44921 18.691406,6.85156 33.89063,10.20312 15.78125,3.75 28.69531,7.5 38.74999,11.25 10.0625,3.74219 18.69141,9.65625 25.89063,17.75 7.20703,8.085938 10.8125,19.03125 10.8125,32.84375 0,11.835938 -3.30859,22.636719 -9.92188,32.40625 -6.60546,9.761719 -16.51562,17.5 -29.73437,23.21875 C 127.625,0.6875 111.54688,3.546875 92.609375,3.546875 Z m 0,0"
                     id="path21"
                     style="fill:#ffffff" />
                </g>
              </g>
            </g>
            <g
               fill="#000000"
               fill-opacity="1"
               id="g27"
               style="fill:#ffffff">
              <g
                 transform="translate(1089.9499,288.64025)"
                 id="g26"
                 style="fill:#ffffff">
                <g
                   id="g25"
                   style="fill:#ffffff">
                  <path
                     d="M 24.5625,-207.125 H 72.5 V 0 H 24.5625 Z m 0,0"
                     id="path24"
                     style="fill:#ffffff" />
                </g>
              </g>
            </g>
            <g
               fill="#000000"
               fill-opacity="1"
               id="g30"
               style="fill:#ffffff">
              <g
                 transform="translate(1163.9125,288.64025)"
                 id="g29"
                 style="fill:#ffffff">
                <g
                   id="g28"
                   style="fill:#ffffff">
                  <path
                     d="m 92.609375,3.546875 c -16.367187,0 -32.195313,-2.21875 -47.484375,-6.65625 -15.292969,-4.4375 -27.574219,-10.207031 -36.84375,-17.3125 l 16.28125,-36.09375 c 8.875,6.511719 19.425781,11.742187 31.65625,15.6875 12.226562,3.9375 24.457031,5.90625 36.6875,5.90625 13.61328,0 23.67578,-2.019531 30.1875,-6.0625 6.50781,-4.039063 9.76562,-9.414063 9.76562,-16.125 0,-4.925781 -1.92968,-9.015625 -5.78124,-12.265625 -3.84375,-3.257812 -8.77735,-5.875 -14.79688,-7.84375 -6.01172,-1.976562 -14.148438,-4.148438 -24.40625,-6.515625 -15.78125,-3.75 -28.703125,-7.5 -38.765625,-11.25 -10.054687,-3.75 -18.683594,-9.765625 -25.890625,-18.046875 -7.199219,-8.28125 -10.796875,-19.32812 -10.796875,-33.14062 0,-12.03125 3.253906,-22.92579 9.765625,-32.6875 6.507812,-9.76954 16.320312,-17.51563 29.4375,-23.23438 13.125,-5.71875 29.15625,-8.57812 48.09375,-8.57812 13.21875,0 26.13281,1.57812 38.75,4.73437 12.625,3.15625 23.67187,7.69531 33.14062,13.60938 l -14.78125,36.39062 c -19.13671,-10.84375 -38.27343,-16.26562 -57.406245,-16.26562 -13.417969,0 -23.335937,2.17187 -29.75,6.51562 -6.40625,4.33594 -9.609375,10.05469 -9.609375,17.15625 0,7.09375 3.695312,12.37109 11.09375,15.82813 7.394531,3.44921 18.691406,6.85156 33.89063,10.20312 15.78125,3.75 28.69531,7.5 38.74999,11.25 10.0625,3.74219 18.69141,9.65625 25.89063,17.75 7.20703,8.085938 10.8125,19.03125 10.8125,32.84375 0,11.835938 -3.30859,22.636719 -9.92188,32.40625 -6.60546,9.761719 -16.51562,17.5 -29.73437,23.21875 C 127.625,0.6875 111.54688,3.546875 92.609375,3.546875 Z m 0,0"
                     id="path27"
                     style="fill:#ffffff" />
                </g>
              </g>
            </g>
            <g
               fill="#000000"
               fill-opacity="1"
               id="g33"
               style="fill:#ffffff">
              <g
                 transform="translate(1.186044,485.35911)"
                 id="g32"
                 style="fill:#ffffff">
                <g
                   id="g31"
                   style="fill:#ffffff">
                  <path
                     d="m 120.875,3.46875 c -20.625,0 -39.277344,-4.476562 -55.953125,-13.4375 C 48.242188,-18.9375 35.132812,-31.375 25.59375,-47.28125 c -9.542969,-15.90625 -14.3125,-33.878906 -14.3125,-53.92188 0,-20.05078 4.769531,-38.03124 14.3125,-53.93749 9.539062,-15.90625 22.648438,-28.33594 39.328125,-37.29688 16.675781,-8.96875 35.421875,-13.45312 56.234375,-13.45312 17.55078,0 33.41016,3.08593 47.57812,9.25 14.16407,6.16796 26.06641,15.03906 35.70313,26.60937 l -30.0625,27.76563 c -13.6875,-15.8125 -30.65625,-23.71875 -50.90625,-23.71875 -12.52344,0 -23.699219,2.75 -33.53125,8.25 -9.835938,5.49218 -17.5,13.15234 -23,22.98437 -5.492188,9.83594 -8.234375,21.01562 -8.234375,33.54687 0,12.531255 2.742187,23.714849 8.234375,33.54688 5.5,9.824219 13.164062,17.484375 23,22.984375 9.832031,5.492187 21.00781,8.234375 33.53125,8.234375 20.25,0 37.21875,-8 50.90625,-24 l 30.0625,27.765625 c -9.63672,11.761719 -21.58984,20.726563 -35.85938,26.890625 -14.26171,6.164062 -30.16406,9.25 -47.70312,9.25 z m 0,0"
                     id="path30"
                     style="fill:#ffffff" />
                </g>
              </g>
            </g>
            <g
               fill="#000000"
               fill-opacity="1"
               id="g36"
               style="fill:#ffffff">
              <g
                 transform="translate(185.13709,485.35911)"
                 id="g35"
                 style="fill:#ffffff">
                <g
                   id="g34"
                   style="fill:#ffffff">
                  <path
                     d="M 94.84375,2.3125 C 78.457031,2.3125 63.757812,-1.109375 50.75,-7.953125 37.738281,-14.796875 27.566406,-24.289062 20.234375,-36.4375 12.910156,-48.582031 9.25,-62.363281 9.25,-77.78125 c 0,-15.425781 3.660156,-29.21094 10.984375,-41.35938 7.332031,-12.14453 17.503906,-21.64062 30.515625,-28.48437 13.007812,-6.84375 27.707031,-10.26562 44.09375,-10.26562 16.38281,0 31.03516,3.42187 43.95312,10.26562 12.91407,6.84375 23.03516,16.33984 30.35938,28.48437 7.33203,12.14844 11,25.933599 11,41.35938 0,15.417969 -3.66797,29.199219 -11,41.34375 -7.32422,12.148438 -17.44531,21.640625 -30.35938,28.484375 C 125.87891,-1.109375 111.22656,2.3125 94.84375,2.3125 Z m 0,-37.015625 c 11.57031,0 21.06641,-3.898437 28.48438,-11.703125 7.42578,-7.8125 11.14062,-18.269531 11.14062,-31.375 0,-13.113281 -3.71484,-23.57031 -11.14062,-31.375 -7.41797,-7.8125 -16.91407,-11.71875 -28.48438,-11.71875 -11.5625,0 -21.105469,3.90625 -28.625,11.71875 -7.523438,7.80469 -11.28125,18.261719 -11.28125,31.375 0,13.105469 3.757812,23.5625 11.28125,31.375 7.519531,7.804688 17.0625,11.703125 28.625,11.703125 z m 0,0"
                     id="path33"
                     style="fill:#ffffff" />
                </g>
              </g>
            </g>
            <g
               fill="#000000"
               fill-opacity="1"
               id="g39"
               style="fill:#ffffff">
              <g
                 transform="translate(351.98497,485.35911)"
                 id="g38"
                 style="fill:#ffffff">
                <g
                   id="g37"
                   style="fill:#ffffff">
                  <path
                     d="m 115.375,-157.89062 c 19.28125,0 34.84766,5.78906 46.70312,17.35937 11.85157,11.5625 17.78125,28.71875 17.78125,51.46875 V 0 H 134.75 v -82.125 c 0,-12.332031 -2.69922,-21.53516 -8.09375,-27.60938 -5.39844,-6.07031 -13.20312,-9.10937 -23.42187,-9.10937 -11.375005,0 -20.437505,3.52344 -27.187505,10.5625 C 69.304688,-101.25 65.9375,-90.796875 65.9375,-76.921875 V 0 H 20.828125 V -155.57812 H 63.90625 v 18.21875 c 5.976562,-6.55079 13.398438,-11.60938 22.265625,-15.17188 8.863281,-3.57031 18.597655,-5.35937 29.203125,-5.35937 z m 0,0"
                     id="path36"
                     style="fill:#ffffff" />
                </g>
              </g>
            </g>
            <g
               fill="#000000"
               fill-opacity="1"
               id="g42"
               style="fill:#ffffff">
              <g
                 transform="translate(529.24286,485.35911)"
                 id="g41"
                 style="fill:#ffffff">
                <g
                   id="g40"
                   style="fill:#ffffff" />
              </g>
            </g>
            <g
               fill="#000000"
               fill-opacity="1"
               id="g45"
               style="fill:#ffffff">
              <g
                 transform="translate(588.52034,485.35911)"
                 id="g44"
                 style="fill:#ffffff">
                <g
                   id="g43"
                   style="fill:#ffffff">
                  <path
                     d="m 122.03125,3.46875 c -21.01172,0 -39.953125,-4.53125 -56.828125,-13.59375 -16.867187,-9.0625 -30.070313,-21.539062 -39.609375,-37.4375 -9.542969,-15.90625 -14.3125,-33.785156 -14.3125,-53.64063 0,-19.86328 4.769531,-37.74218 14.3125,-53.64062 9.539062,-15.90625 22.742188,-28.39062 39.609375,-37.45312 16.875,-9.0625 35.816405,-13.59375 56.828125,-13.59375 21.00781,0 39.89844,4.53125 56.67187,13.59375 16.76954,9.0625 29.97266,21.54687 39.60938,37.45312 9.64453,15.89844 14.46875,33.77734 14.46875,53.64062 0,19.855474 -4.82422,37.73438 -14.46875,53.64063 -9.63672,15.898438 -22.83984,28.375 -39.60938,37.4375 -16.77343,9.0625 -35.66406,13.59375 -56.67187,13.59375 z m 0,-39.90625 c 11.94531,0 22.73828,-2.742188 32.375,-8.234375 9.64453,-5.5 17.21094,-13.160156 22.70312,-22.984375 5.5,-9.832031 8.25,-21.015625 8.25,-33.54688 0,-12.53125 -2.75,-23.71093 -8.25,-33.54687 -5.49218,-9.83203 -13.05859,-17.49219 -22.70312,-22.98437 -9.63672,-5.5 -20.42969,-8.25 -32.375,-8.25 -11.94922,0 -22.746094,2.75 -32.390625,8.25 -9.636719,5.49218 -17.203125,13.15234 -22.703125,22.98437 -5.492188,9.83594 -8.234375,21.01562 -8.234375,33.54687 0,12.531255 2.742187,23.714849 8.234375,33.54688 5.5,9.824219 13.066406,17.484375 22.703125,22.984375 9.644531,5.492187 20.441405,8.234375 32.390625,8.234375 z m 0,0"
                     id="path42"
                     style="fill:#ffffff" />
                </g>
              </g>
            </g>
            <g
               fill="#000000"
               fill-opacity="1"
               id="g48"
               style="fill:#ffffff">
              <g
                 transform="translate(810.02093,485.35911)"
                 id="g47"
                 style="fill:#ffffff">
                <g
                   id="g46"
                   style="fill:#ffffff">
                  <path
                     d="m 73.15625,2.3125 c -12.917969,0 -25.546875,-1.589844 -37.890625,-4.765625 -12.335937,-3.1875 -22.164063,-7.1875 -29.484375,-12 L 20.828125,-46.84375 c 6.9375,4.4375 15.316406,8.054688 25.140625,10.84375 9.832031,2.792969 19.472656,4.1875 28.921875,4.1875 19.09375,0 28.640625,-4.722656 28.640625,-14.171875 0,-4.425781 -2.60547,-7.601563 -7.8125,-9.53125 -5.210938,-1.925781 -13.210938,-3.566406 -24,-4.921875 -12.730469,-1.925781 -23.242188,-4.140625 -31.53125,-6.640625 -8.28125,-2.507813 -15.460938,-6.945313 -21.53125,-13.3125 -6.074219,-6.363281 -9.109375,-15.425781 -9.109375,-27.187505 0,-9.82031 2.84375,-18.53906 8.53125,-26.15624 5.6875,-7.625 13.972656,-13.55469 24.859375,-17.79688 10.894531,-4.23828 23.765625,-6.35937 38.609375,-6.35937 10.988281,0 21.925785,1.21093 32.812505,3.625 10.89453,2.40625 19.91015,5.73046 27.04687,9.96875 l -15.03125,32.09374 c -13.6875,-7.70703 -28.632812,-11.5625 -44.828125,-11.5625 -9.636719,0 -16.867187,1.35157 -21.6875,4.04688 -4.824219,2.69922 -7.234375,6.16797 -7.234375,10.40625 0,4.82422 2.601562,8.19922 7.8125,10.125 5.207031,1.929688 13.5,3.761719 24.875,5.5 12.71875,2.117188 23.125,4.382812 31.21875,6.796875 8.10156,2.40625 15.14062,6.792969 21.10937,13.15625 5.97657,6.355469 8.96875,15.21875 8.96875,26.59375 0,9.648437 -2.89062,18.230469 -8.67187,25.75 -5.78125,7.511719 -14.21875,13.339844 -25.3125,17.484375 C 101.53906,0.238281 88.382812,2.3125 73.15625,2.3125 Z m 0,0"
                     id="path45"
                     style="fill:#ffffff" />
                </g>
              </g>
            </g>
            <g
               fill="#000000"
               fill-opacity="1"
               id="g51"
               style="fill:#ffffff">
              <g
                 transform="translate(941.01198,485.35911)"
                 id="g50"
                 style="fill:#ffffff">
                <g
                   id="g49"
                   style="fill:#ffffff">
                  <path
                     d="M 96,2.3125 C 79.425781,2.3125 64.535156,-1.109375 51.328125,-7.953125 38.117188,-14.796875 27.800781,-24.289062 20.375,-36.4375 12.957031,-48.582031 9.25,-62.363281 9.25,-77.78125 c 0,-15.425781 3.707031,-29.21094 11.125,-41.35938 7.425781,-12.14453 17.742188,-21.64062 30.953125,-28.48437 13.207031,-6.84375 28.097656,-10.26562 44.671875,-10.26562 16.38281,0 30.69531,3.42187 42.9375,10.26562 12.25,6.84375 21.17187,16.63281 26.76562,29.35937 l -35,18.79688 c -8.09374,-14.26953 -19.75781,-21.40625 -34.98437,-21.40625 -11.761719,0 -21.5,3.85937 -29.21875,11.57812 -7.710938,7.71094 -11.5625,18.214849 -11.5625,31.51563 0,13.304688 3.851562,23.808594 11.5625,31.515625 7.71875,7.710937 17.457031,11.5625 29.21875,11.5625 15.41406,0 27.07813,-7.128906 34.98437,-21.390625 l 35,19.078125 C 160.10937,-24.671875 151.1875,-15.03125 138.9375,-8.09375 126.69531,-1.15625 112.38281,2.3125 96,2.3125 Z m 0,0"
                     id="path48"
                     style="fill:#ffffff" />
                </g>
              </g>
            </g>
            <g
               fill="#000000"
               fill-opacity="1"
               id="g54"
               style="fill:#ffffff">
              <g
                 transform="translate(1089.3531,485.35911)"
                 id="g53"
                 style="fill:#ffffff">
                <g
                   id="g52"
                   style="fill:#ffffff">
                  <path
                     d="m 83.578125,-157.89062 c 24.093755,0 42.597655,5.74218 55.515625,17.21875 12.91406,11.46875 19.375,28.76562 19.375,51.89062 V 0 H 116.25 V -19.375 C 107.76953,-4.914062 91.960938,2.3125 68.828125,2.3125 c -11.960937,0 -22.324219,-2.023438 -31.09375,-6.0625 -8.773437,-4.050781 -15.46875,-9.644531 -20.09375,-16.78125 -4.625,-7.132812 -6.9375,-15.234375 -6.9375,-24.296875 0,-14.457031 5.441406,-25.828125 16.328125,-34.109375 C 37.925781,-87.226562 54.75,-91.375 77.5,-91.375 h 35.85938 c 0,-9.83203 -2.99219,-17.39844 -8.96875,-22.70313 -5.980474,-5.30078 -14.945318,-7.95312 -26.89063,-7.95312 -8.292969,0 -16.4375,1.30469 -24.4375,3.90625 -8,2.60547 -14.796875,6.12109 -20.390625,10.54687 l -16.1875,-31.51562 c 8.476563,-5.97656 18.644531,-10.60156 30.5,-13.875 11.863281,-3.28125 24.0625,-4.92187 36.59375,-4.92187 z M 80.09375,-28.046875 c 7.71875,0 14.5625,-1.78125 20.53125,-5.34375 5.97656,-3.570313 10.22266,-8.828125 12.73438,-15.765625 V -65.0625 H 82.40625 c -18.5,0 -27.75,6.074219 -27.75,18.21875 0,5.78125 2.265625,10.359375 6.796875,13.734375 4.53125,3.375 10.742187,5.0625 18.640625,5.0625 z m 0,0"
                     id="path51"
                     style="fill:#ffffff" />
                </g>
              </g>
            </g>
            <g
               fill="#000000"
               fill-opacity="1"
               id="g57"
               style="fill:#ffffff">
              <g
                 transform="translate(1245.2126,485.35911)"
                 id="g56"
                 style="fill:#ffffff">
                <g
                   id="g55"
                   style="fill:#ffffff">
                  <path
                     d="m 63.90625,-135.04687 c 5.394531,-7.51954 12.671875,-13.20704 21.828125,-17.0625 9.15625,-3.85157 19.710935,-5.78125 31.671875,-5.78125 V -116.25 c -5.01172,-0.38281 -8.38672,-0.57813 -10.125,-0.57813 -12.917969,0 -23.039062,3.61719 -30.359375,10.84375 C 69.597656,-98.753906 65.9375,-87.910156 65.9375,-73.453125 V 0 H 20.828125 V -155.57812 H 63.90625 Z m 0,0"
                     id="path54"
                     style="fill:#ffffff" />
                </g>
              </g>
            </g>
          </g>
        </g>
      </g>
    </g>
  </g>
</svg>
