<svg xmlns="http://www.w3.org/2000/svg" xmlns:xlink="http://www.w3.org/1999/xlink" width="150" zoomAndPan="magnify" viewBox="0 0 112.5 112.499997" height="150" preserveAspectRatio="xMidYMid meet" version="1.0"><defs><g/><clipPath id="697c685ccd"><path d="M 0 0 L 112.003906 0 L 112.003906 112.003906 L 0 112.003906 Z M 0 0 " clip-rule="nonzero"/></clipPath><clipPath id="06c61eba1a"><path d="M 23.691406 10 L 88.652344 10 L 88.652344 77 L 23.691406 77 Z M 23.691406 10 " clip-rule="nonzero"/></clipPath><clipPath id="565695920f"><path d="M 56 4 L 64.929688 4 L 64.929688 15 L 56 15 Z M 56 4 " clip-rule="nonzero"/></clipPath><clipPath id="16df0d5c66"><path d="M 60 16 L 64.929688 16 L 64.929688 24 L 60 24 Z M 60 16 " clip-rule="nonzero"/></clipPath><clipPath id="041fb43b16"><rect x="0" width="65" y="0" height="28"/></clipPath></defs><g clip-path="url(#697c685ccd)"><path fill="#ffffff" d="M 0 0 L 112.003906 0 L 112.003906 112.003906 L 0 112.003906 Z M 0 0 " fill-opacity="1" fill-rule="nonzero"/><path fill="#ffffff" d="M 0 0 L 112.003906 0 L 112.003906 112.003906 L 0 112.003906 Z M 0 0 " fill-opacity="1" fill-rule="nonzero"/></g><g clip-path="url(#06c61eba1a)"><path fill="#ff3131" d="M 23.691406 37.195312 C 24.015625 36.40625 24.304688 35.597656 24.664062 34.824219 C 27.355469 28.992188 31.460938 24.398438 36.933594 21.070312 C 42.882812 17.449219 49.335938 15.898438 56.292969 16.691406 C 61.058594 17.238281 65.472656 18.8125 69.324219 21.679688 C 77.730469 27.933594 81.929688 36.265625 81.300781 46.835938 C 81.085938 50.484375 79.984375 53.90625 78.199219 57.089844 C 75.628906 61.667969 71.980469 65.140625 67.292969 67.5 C 62.359375 69.984375 57.144531 70.859375 51.722656 69.707031 C 44.125 68.097656 38.695312 63.652344 35.488281 56.585938 C 33.570312 52.355469 33.128906 47.921875 34.183594 43.375 C 36.140625 34.9375 43.339844 29.246094 50.832031 28.421875 C 54.53125 28.015625 58.058594 28.597656 61.234375 30.523438 C 66.933594 33.976562 69.921875 39.019531 69.53125 45.785156 C 69.328125 49.3125 67.863281 52.351562 65.234375 54.722656 C 61.566406 58.035156 57.335938 59.320312 52.507812 57.707031 C 47.839844 56.152344 44.847656 51.265625 45.507812 46.75 C 46.027344 43.183594 48.957031 40.3125 52.550781 40.035156 C 54.792969 39.863281 56.992188 41.261719 57.71875 43.386719 C 57.898438 43.910156 57.824219 44.75 57.746094 45.164062 L 57.617188 44.847656 C 56.546875 42.449219 52.851562 42.25 51.167969 44.089844 C 50.210938 45.136719 49.851562 46.359375 49.886719 47.753906 C 49.953125 50.542969 51.992188 52.960938 54.734375 53.441406 C 57.753906 53.972656 60.261719 52.960938 62.300781 50.785156 C 64.941406 47.96875 65.410156 43.589844 63.609375 39.953125 C 60.816406 34.316406 54.496094 32.050781 48.789062 33.941406 C 42.066406 36.167969 37.957031 42.625 38.757812 49.703125 C 39.3125 54.59375 41.628906 58.558594 45.539062 61.523438 C 51.425781 65.988281 59.578125 66.324219 66.078125 62.464844 C 73.554688 58.027344 77.445312 49.882812 76.109375 41.277344 C 75.234375 35.660156 72.59375 30.960938 68.28125 27.277344 C 62.457031 22.304688 55.664062 20.578125 48.195312 22.03125 C 40.421875 23.542969 34.5 27.828125 30.523438 34.601562 C 27.320312 40.054688 26.21875 46.46875 27.324219 52.699219 C 28.574219 59.761719 32.019531 65.574219 37.480469 70.15625 C 41.863281 73.835938 46.9375 75.96875 52.621094 76.683594 C 56.054688 77.117188 59.453125 76.941406 62.820312 76.203125 C 67.621094 75.148438 71.972656 73.105469 75.808594 70.03125 C 83.679688 63.714844 87.753906 55.460938 88.160156 45.40625 C 88.300781 41.933594 87.78125 38.519531 86.804688 35.179688 C 85.246094 29.863281 82.597656 25.144531 78.828125 21.09375 C 78.765625 21.027344 78.703125 20.960938 78.644531 20.894531 C 64.054688 5.425781 38.625 8.191406 27.902344 26.550781 C 24.574219 32.242188 23.691406 37.195312 23.691406 37.195312 Z M 23.691406 37.195312 " fill-opacity="1" fill-rule="nonzero"/></g><g transform="matrix(1, 0, 0, 1, 23, 76)"><g clip-path="url(#041fb43b16)"><g fill="#000000" fill-opacity="1"><g transform="translate(1.414381, 14.103814)"><g><path d="M 10.03125 -9.671875 L 10.03125 0 L 7.78125 0 L 7.78125 -3.96875 L 3.390625 -3.96875 L 3.390625 0 L 1.140625 0 L 1.140625 -9.671875 L 3.390625 -9.671875 L 3.390625 -5.859375 L 7.78125 -5.859375 L 7.78125 -9.671875 Z M 10.03125 -9.671875 "/></g></g></g><g fill="#000000" fill-opacity="1"><g transform="translate(11.509059, 14.103814)"><g><path d="M 1.140625 -9.671875 L 3.390625 -9.671875 L 3.390625 0 L 1.140625 0 Z M 1.140625 -9.671875 "/></g></g></g><g fill="#000000" fill-opacity="1"><g transform="translate(14.966086, 14.103814)"><g><path d="M 5.34375 -9.671875 C 6.195312 -9.671875 6.9375 -9.53125 7.5625 -9.25 C 8.195312 -8.96875 8.6875 -8.5625 9.03125 -8.03125 C 9.375 -7.507812 9.546875 -6.890625 9.546875 -6.171875 C 9.546875 -5.460938 9.375 -4.84375 9.03125 -4.3125 C 8.6875 -3.78125 8.195312 -3.375 7.5625 -3.09375 C 6.9375 -2.8125 6.195312 -2.671875 5.34375 -2.671875 L 3.390625 -2.671875 L 3.390625 0 L 1.140625 0 L 1.140625 -9.671875 Z M 5.21875 -4.5 C 5.882812 -4.5 6.394531 -4.640625 6.75 -4.921875 C 7.101562 -5.210938 7.28125 -5.628906 7.28125 -6.171875 C 7.28125 -6.710938 7.101562 -7.128906 6.75 -7.421875 C 6.394531 -7.710938 5.882812 -7.859375 5.21875 -7.859375 L 3.390625 -7.859375 L 3.390625 -4.5 Z M 5.21875 -4.5 "/></g></g></g><g fill="#000000" fill-opacity="1"><g transform="translate(23.871516, 14.103814)"><g><path d="M 10.03125 -9.671875 L 10.03125 0 L 8.1875 0 L 3.359375 -5.875 L 3.359375 0 L 1.140625 0 L 1.140625 -9.671875 L 3 -9.671875 L 7.8125 -3.796875 L 7.8125 -9.671875 Z M 10.03125 -9.671875 "/></g></g></g><g fill="#000000" fill-opacity="1"><g transform="translate(33.966195, 14.103814)"><g><path d="M 5.828125 0.171875 C 4.828125 0.171875 3.921875 -0.046875 3.109375 -0.484375 C 2.304688 -0.921875 1.675781 -1.519531 1.21875 -2.28125 C 0.769531 -3.039062 0.546875 -3.894531 0.546875 -4.84375 C 0.546875 -5.789062 0.769531 -6.644531 1.21875 -7.40625 C 1.675781 -8.164062 2.304688 -8.757812 3.109375 -9.1875 C 3.921875 -9.625 4.828125 -9.84375 5.828125 -9.84375 C 6.835938 -9.84375 7.742188 -9.625 8.546875 -9.1875 C 9.347656 -8.757812 9.976562 -8.164062 10.4375 -7.40625 C 10.894531 -6.644531 11.125 -5.789062 11.125 -4.84375 C 11.125 -3.894531 10.894531 -3.039062 10.4375 -2.28125 C 9.976562 -1.519531 9.347656 -0.921875 8.546875 -0.484375 C 7.742188 -0.046875 6.835938 0.171875 5.828125 0.171875 Z M 5.828125 -1.75 C 6.398438 -1.75 6.914062 -1.878906 7.375 -2.140625 C 7.84375 -2.398438 8.207031 -2.765625 8.46875 -3.234375 C 8.726562 -3.703125 8.859375 -4.238281 8.859375 -4.84375 C 8.859375 -5.4375 8.726562 -5.96875 8.46875 -6.4375 C 8.207031 -6.914062 7.84375 -7.285156 7.375 -7.546875 C 6.914062 -7.804688 6.398438 -7.9375 5.828125 -7.9375 C 5.265625 -7.9375 4.75 -7.804688 4.28125 -7.546875 C 3.820312 -7.285156 3.460938 -6.914062 3.203125 -6.4375 C 2.941406 -5.96875 2.8125 -5.4375 2.8125 -4.84375 C 2.8125 -4.238281 2.941406 -3.703125 3.203125 -3.234375 C 3.460938 -2.765625 3.820312 -2.398438 4.28125 -2.140625 C 4.75 -1.878906 5.265625 -1.75 5.828125 -1.75 Z M 5.828125 -1.75 "/></g></g></g><g fill="#000000" fill-opacity="1"><g transform="translate(44.558696, 14.103814)"><g><path d="M 4.328125 0.171875 C 3.566406 0.171875 2.828125 0.0664062 2.109375 -0.140625 C 1.390625 -0.347656 0.816406 -0.617188 0.390625 -0.953125 L 1.140625 -2.640625 C 1.554688 -2.335938 2.050781 -2.09375 2.625 -1.90625 C 3.195312 -1.71875 3.769531 -1.625 4.34375 -1.625 C 4.976562 -1.625 5.445312 -1.71875 5.75 -1.90625 C 6.050781 -2.101562 6.203125 -2.359375 6.203125 -2.671875 C 6.203125 -2.898438 6.113281 -3.085938 5.9375 -3.234375 C 5.757812 -3.390625 5.53125 -3.515625 5.25 -3.609375 C 4.96875 -3.703125 4.585938 -3.800781 4.109375 -3.90625 C 3.367188 -4.082031 2.765625 -4.257812 2.296875 -4.4375 C 1.828125 -4.613281 1.421875 -4.894531 1.078125 -5.28125 C 0.742188 -5.664062 0.578125 -6.179688 0.578125 -6.828125 C 0.578125 -7.390625 0.726562 -7.898438 1.03125 -8.359375 C 1.34375 -8.816406 1.800781 -9.175781 2.40625 -9.4375 C 3.019531 -9.707031 3.769531 -9.84375 4.65625 -9.84375 C 5.28125 -9.84375 5.882812 -9.769531 6.46875 -9.625 C 7.0625 -9.476562 7.578125 -9.265625 8.015625 -8.984375 L 7.328125 -7.28125 C 6.429688 -7.789062 5.535156 -8.046875 4.640625 -8.046875 C 4.015625 -8.046875 3.550781 -7.941406 3.25 -7.734375 C 2.957031 -7.535156 2.8125 -7.269531 2.8125 -6.9375 C 2.8125 -6.601562 2.984375 -6.351562 3.328125 -6.1875 C 3.671875 -6.03125 4.195312 -5.875 4.90625 -5.71875 C 5.644531 -5.550781 6.25 -5.378906 6.71875 -5.203125 C 7.1875 -5.023438 7.585938 -4.742188 7.921875 -4.359375 C 8.265625 -3.984375 8.4375 -3.472656 8.4375 -2.828125 C 8.4375 -2.273438 8.28125 -1.769531 7.96875 -1.3125 C 7.664062 -0.863281 7.203125 -0.503906 6.578125 -0.234375 C 5.960938 0.0351562 5.210938 0.171875 4.328125 0.171875 Z M 4.328125 0.171875 "/></g></g></g><g fill="#000000" fill-opacity="1"><g transform="translate(52.302541, 14.103814)"><g><path d="M 1.140625 -9.671875 L 3.390625 -9.671875 L 3.390625 0 L 1.140625 0 Z M 1.140625 -9.671875 "/></g></g></g><g clip-path="url(#565695920f)"><g fill="#000000" fill-opacity="1"><g transform="translate(55.759567, 14.103814)"><g><path d="M 4.328125 0.171875 C 3.566406 0.171875 2.828125 0.0664062 2.109375 -0.140625 C 1.390625 -0.347656 0.816406 -0.617188 0.390625 -0.953125 L 1.140625 -2.640625 C 1.554688 -2.335938 2.050781 -2.09375 2.625 -1.90625 C 3.195312 -1.71875 3.769531 -1.625 4.34375 -1.625 C 4.976562 -1.625 5.445312 -1.71875 5.75 -1.90625 C 6.050781 -2.101562 6.203125 -2.359375 6.203125 -2.671875 C 6.203125 -2.898438 6.113281 -3.085938 5.9375 -3.234375 C 5.757812 -3.390625 5.53125 -3.515625 5.25 -3.609375 C 4.96875 -3.703125 4.585938 -3.800781 4.109375 -3.90625 C 3.367188 -4.082031 2.765625 -4.257812 2.296875 -4.4375 C 1.828125 -4.613281 1.421875 -4.894531 1.078125 -5.28125 C 0.742188 -5.664062 0.578125 -6.179688 0.578125 -6.828125 C 0.578125 -7.390625 0.726562 -7.898438 1.03125 -8.359375 C 1.34375 -8.816406 1.800781 -9.175781 2.40625 -9.4375 C 3.019531 -9.707031 3.769531 -9.84375 4.65625 -9.84375 C 5.28125 -9.84375 5.882812 -9.769531 6.46875 -9.625 C 7.0625 -9.476562 7.578125 -9.265625 8.015625 -8.984375 L 7.328125 -7.28125 C 6.429688 -7.789062 5.535156 -8.046875 4.640625 -8.046875 C 4.015625 -8.046875 3.550781 -7.941406 3.25 -7.734375 C 2.957031 -7.535156 2.8125 -7.269531 2.8125 -6.9375 C 2.8125 -6.601562 2.984375 -6.351562 3.328125 -6.1875 C 3.671875 -6.03125 4.195312 -5.875 4.90625 -5.71875 C 5.644531 -5.550781 6.25 -5.378906 6.71875 -5.203125 C 7.1875 -5.023438 7.585938 -4.742188 7.921875 -4.359375 C 8.265625 -3.984375 8.4375 -3.472656 8.4375 -2.828125 C 8.4375 -2.273438 8.28125 -1.769531 7.96875 -1.3125 C 7.664062 -0.863281 7.203125 -0.503906 6.578125 -0.234375 C 5.960938 0.0351562 5.210938 0.171875 4.328125 0.171875 Z M 4.328125 0.171875 "/></g></g></g></g><g fill="#000000" fill-opacity="1"><g transform="translate(0.977508, 23.57409)"><g><path d="M 5.65625 0.15625 C 4.6875 0.15625 3.8125 -0.0507812 3.03125 -0.46875 C 2.257812 -0.882812 1.648438 -1.460938 1.203125 -2.203125 C 0.753906 -2.953125 0.53125 -3.796875 0.53125 -4.734375 C 0.53125 -5.671875 0.753906 -6.507812 1.203125 -7.25 C 1.648438 -8 2.257812 -8.582031 3.03125 -9 C 3.8125 -9.425781 4.691406 -9.640625 5.671875 -9.640625 C 6.492188 -9.640625 7.234375 -9.492188 7.890625 -9.203125 C 8.554688 -8.910156 9.113281 -8.492188 9.5625 -7.953125 L 8.15625 -6.65625 C 7.519531 -7.394531 6.726562 -7.765625 5.78125 -7.765625 C 5.1875 -7.765625 4.660156 -7.632812 4.203125 -7.375 C 3.742188 -7.125 3.382812 -6.765625 3.125 -6.296875 C 2.875 -5.835938 2.75 -5.316406 2.75 -4.734375 C 2.75 -4.148438 2.875 -3.625 3.125 -3.15625 C 3.382812 -2.695312 3.742188 -2.335938 4.203125 -2.078125 C 4.660156 -1.828125 5.1875 -1.703125 5.78125 -1.703125 C 6.726562 -1.703125 7.519531 -2.078125 8.15625 -2.828125 L 9.5625 -1.53125 C 9.113281 -0.976562 8.554688 -0.554688 7.890625 -0.265625 C 7.222656 0.015625 6.476562 0.15625 5.65625 0.15625 Z M 5.65625 0.15625 "/></g></g></g><g fill="#000000" fill-opacity="1"><g transform="translate(9.581085, 23.57409)"><g><path d="M 4.4375 0.109375 C 3.664062 0.109375 2.976562 -0.0507812 2.375 -0.375 C 1.769531 -0.695312 1.296875 -1.140625 0.953125 -1.703125 C 0.609375 -2.273438 0.4375 -2.921875 0.4375 -3.640625 C 0.4375 -4.359375 0.609375 -5 0.953125 -5.5625 C 1.296875 -6.132812 1.769531 -6.582031 2.375 -6.90625 C 2.976562 -7.226562 3.664062 -7.390625 4.4375 -7.390625 C 5.207031 -7.390625 5.894531 -7.226562 6.5 -6.90625 C 7.101562 -6.582031 7.578125 -6.132812 7.921875 -5.5625 C 8.265625 -5 8.4375 -4.359375 8.4375 -3.640625 C 8.4375 -2.921875 8.265625 -2.273438 7.921875 -1.703125 C 7.578125 -1.140625 7.101562 -0.695312 6.5 -0.375 C 5.894531 -0.0507812 5.207031 0.109375 4.4375 0.109375 Z M 4.4375 -1.625 C 4.976562 -1.625 5.421875 -1.804688 5.765625 -2.171875 C 6.117188 -2.535156 6.296875 -3.023438 6.296875 -3.640625 C 6.296875 -4.253906 6.117188 -4.742188 5.765625 -5.109375 C 5.421875 -5.472656 4.976562 -5.65625 4.4375 -5.65625 C 3.894531 -5.65625 3.445312 -5.472656 3.09375 -5.109375 C 2.75 -4.742188 2.578125 -4.253906 2.578125 -3.640625 C 2.578125 -3.023438 2.75 -2.535156 3.09375 -2.171875 C 3.445312 -1.804688 3.894531 -1.625 4.4375 -1.625 Z M 4.4375 -1.625 "/></g></g></g><g fill="#000000" fill-opacity="1"><g transform="translate(17.385006, 23.57409)"><g><path d="M 5.40625 -7.390625 C 6.300781 -7.390625 7.023438 -7.117188 7.578125 -6.578125 C 8.140625 -6.035156 8.421875 -5.234375 8.421875 -4.171875 L 8.421875 0 L 6.3125 0 L 6.3125 -3.84375 C 6.3125 -4.414062 6.179688 -4.84375 5.921875 -5.125 C 5.671875 -5.414062 5.304688 -5.5625 4.828125 -5.5625 C 4.296875 -5.5625 3.867188 -5.394531 3.546875 -5.0625 C 3.234375 -4.738281 3.078125 -4.25 3.078125 -3.59375 L 3.078125 0 L 0.96875 0 L 0.96875 -7.28125 L 2.984375 -7.28125 L 2.984375 -6.421875 C 3.265625 -6.734375 3.613281 -6.972656 4.03125 -7.140625 C 4.445312 -7.304688 4.90625 -7.390625 5.40625 -7.390625 Z M 5.40625 -7.390625 "/></g></g></g><g fill="#000000" fill-opacity="1"><g transform="translate(25.675843, 23.57409)"><g/></g></g><g fill="#000000" fill-opacity="1"><g transform="translate(28.448294, 23.57409)"><g><path d="M 5.703125 0.15625 C 4.722656 0.15625 3.835938 -0.0507812 3.046875 -0.46875 C 2.265625 -0.894531 1.648438 -1.476562 1.203125 -2.21875 C 0.753906 -2.96875 0.53125 -3.804688 0.53125 -4.734375 C 0.53125 -5.660156 0.753906 -6.492188 1.203125 -7.234375 C 1.648438 -7.984375 2.265625 -8.570312 3.046875 -9 C 3.835938 -9.425781 4.722656 -9.640625 5.703125 -9.640625 C 6.691406 -9.640625 7.578125 -9.425781 8.359375 -9 C 9.148438 -8.570312 9.769531 -7.984375 10.21875 -7.234375 C 10.664062 -6.492188 10.890625 -5.660156 10.890625 -4.734375 C 10.890625 -3.804688 10.664062 -2.96875 10.21875 -2.21875 C 9.769531 -1.476562 9.148438 -0.894531 8.359375 -0.46875 C 7.578125 -0.0507812 6.691406 0.15625 5.703125 0.15625 Z M 5.703125 -1.703125 C 6.265625 -1.703125 6.769531 -1.828125 7.21875 -2.078125 C 7.675781 -2.335938 8.03125 -2.695312 8.28125 -3.15625 C 8.539062 -3.625 8.671875 -4.148438 8.671875 -4.734375 C 8.671875 -5.316406 8.539062 -5.835938 8.28125 -6.296875 C 8.03125 -6.765625 7.675781 -7.125 7.21875 -7.375 C 6.769531 -7.632812 6.265625 -7.765625 5.703125 -7.765625 C 5.148438 -7.765625 4.644531 -7.632812 4.1875 -7.375 C 3.738281 -7.125 3.382812 -6.765625 3.125 -6.296875 C 2.875 -5.835938 2.75 -5.316406 2.75 -4.734375 C 2.75 -4.148438 2.875 -3.625 3.125 -3.15625 C 3.382812 -2.695312 3.738281 -2.335938 4.1875 -2.078125 C 4.644531 -1.828125 5.148438 -1.703125 5.703125 -1.703125 Z M 5.703125 -1.703125 "/></g></g></g><g fill="#000000" fill-opacity="1"><g transform="translate(38.808528, 23.57409)"><g><path d="M 3.421875 0.109375 C 2.816406 0.109375 2.222656 0.0351562 1.640625 -0.109375 C 1.066406 -0.265625 0.609375 -0.453125 0.265625 -0.671875 L 0.96875 -2.1875 C 1.300781 -1.976562 1.695312 -1.804688 2.15625 -1.671875 C 2.613281 -1.546875 3.0625 -1.484375 3.5 -1.484375 C 4.394531 -1.484375 4.84375 -1.707031 4.84375 -2.15625 C 4.84375 -2.363281 4.71875 -2.507812 4.46875 -2.59375 C 4.226562 -2.6875 3.859375 -2.765625 3.359375 -2.828125 C 2.765625 -2.921875 2.269531 -3.023438 1.875 -3.140625 C 1.488281 -3.253906 1.15625 -3.457031 0.875 -3.75 C 0.59375 -4.050781 0.453125 -4.476562 0.453125 -5.03125 C 0.453125 -5.488281 0.582031 -5.894531 0.84375 -6.25 C 1.113281 -6.613281 1.503906 -6.894531 2.015625 -7.09375 C 2.523438 -7.289062 3.125 -7.390625 3.8125 -7.390625 C 4.332031 -7.390625 4.84375 -7.332031 5.34375 -7.21875 C 5.851562 -7.101562 6.273438 -6.945312 6.609375 -6.75 L 5.90625 -5.25 C 5.269531 -5.613281 4.570312 -5.796875 3.8125 -5.796875 C 3.363281 -5.796875 3.023438 -5.726562 2.796875 -5.59375 C 2.578125 -5.46875 2.46875 -5.304688 2.46875 -5.109375 C 2.46875 -4.890625 2.585938 -4.734375 2.828125 -4.640625 C 3.066406 -4.546875 3.453125 -4.460938 3.984375 -4.390625 C 4.585938 -4.285156 5.078125 -4.175781 5.453125 -4.0625 C 5.828125 -3.945312 6.15625 -3.738281 6.4375 -3.4375 C 6.71875 -3.144531 6.859375 -2.734375 6.859375 -2.203125 C 6.859375 -1.753906 6.722656 -1.351562 6.453125 -1 C 6.179688 -0.644531 5.785156 -0.367188 5.265625 -0.171875 C 4.753906 0.015625 4.140625 0.109375 3.421875 0.109375 Z M 3.421875 0.109375 "/></g></g></g><g fill="#000000" fill-opacity="1"><g transform="translate(44.935294, 23.57409)"><g><path d="M 4.5 0.109375 C 3.71875 0.109375 3.015625 -0.0507812 2.390625 -0.375 C 1.773438 -0.695312 1.296875 -1.140625 0.953125 -1.703125 C 0.609375 -2.273438 0.4375 -2.921875 0.4375 -3.640625 C 0.4375 -4.359375 0.609375 -5 0.953125 -5.5625 C 1.296875 -6.132812 1.773438 -6.582031 2.390625 -6.90625 C 3.015625 -7.226562 3.71875 -7.390625 4.5 -7.390625 C 5.257812 -7.390625 5.925781 -7.226562 6.5 -6.90625 C 7.070312 -6.582031 7.488281 -6.125 7.75 -5.53125 L 6.109375 -4.65625 C 5.734375 -5.320312 5.191406 -5.65625 4.484375 -5.65625 C 3.929688 -5.65625 3.472656 -5.472656 3.109375 -5.109375 C 2.753906 -4.753906 2.578125 -4.265625 2.578125 -3.640625 C 2.578125 -3.015625 2.753906 -2.519531 3.109375 -2.15625 C 3.472656 -1.800781 3.929688 -1.625 4.484375 -1.625 C 5.203125 -1.625 5.742188 -1.957031 6.109375 -2.625 L 7.75 -1.734375 C 7.488281 -1.148438 7.070312 -0.695312 6.5 -0.375 C 5.925781 -0.0507812 5.257812 0.109375 4.5 0.109375 Z M 4.5 0.109375 "/></g></g></g><g fill="#000000" fill-opacity="1"><g transform="translate(51.873585, 23.57409)"><g><path d="M 3.90625 -7.390625 C 5.039062 -7.390625 5.910156 -7.117188 6.515625 -6.578125 C 7.117188 -6.046875 7.421875 -5.238281 7.421875 -4.15625 L 7.421875 0 L 5.4375 0 L 5.4375 -0.90625 C 5.039062 -0.226562 4.300781 0.109375 3.21875 0.109375 C 2.65625 0.109375 2.171875 0.015625 1.765625 -0.171875 C 1.359375 -0.359375 1.046875 -0.617188 0.828125 -0.953125 C 0.609375 -1.296875 0.5 -1.675781 0.5 -2.09375 C 0.5 -2.769531 0.753906 -3.300781 1.265625 -3.6875 C 1.773438 -4.082031 2.5625 -4.28125 3.625 -4.28125 L 5.296875 -4.28125 C 5.296875 -4.738281 5.15625 -5.085938 4.875 -5.328125 C 4.601562 -5.578125 4.1875 -5.703125 3.625 -5.703125 C 3.238281 -5.703125 2.859375 -5.640625 2.484375 -5.515625 C 2.109375 -5.398438 1.789062 -5.238281 1.53125 -5.03125 L 0.765625 -6.515625 C 1.160156 -6.785156 1.632812 -7 2.1875 -7.15625 C 2.75 -7.3125 3.320312 -7.390625 3.90625 -7.390625 Z M 3.75 -1.3125 C 4.113281 -1.3125 4.429688 -1.394531 4.703125 -1.5625 C 4.984375 -1.726562 5.179688 -1.972656 5.296875 -2.296875 L 5.296875 -3.046875 L 3.859375 -3.046875 C 2.992188 -3.046875 2.5625 -2.757812 2.5625 -2.1875 C 2.5625 -1.914062 2.664062 -1.703125 2.875 -1.546875 C 3.082031 -1.390625 3.375 -1.3125 3.75 -1.3125 Z M 3.75 -1.3125 "/></g></g></g><g clip-path="url(#16df0d5c66)"><g fill="#000000" fill-opacity="1"><g transform="translate(59.16354, 23.57409)"><g><path d="M 2.984375 -6.3125 C 3.242188 -6.664062 3.585938 -6.929688 4.015625 -7.109375 C 4.441406 -7.296875 4.9375 -7.390625 5.5 -7.390625 L 5.5 -5.4375 C 5.257812 -5.457031 5.097656 -5.46875 5.015625 -5.46875 C 4.410156 -5.46875 3.9375 -5.296875 3.59375 -4.953125 C 3.25 -4.617188 3.078125 -4.113281 3.078125 -3.4375 L 3.078125 0 L 0.96875 0 L 0.96875 -7.28125 L 2.984375 -7.28125 Z M 2.984375 -6.3125 "/></g></g></g></g></g></g></svg>