<?xml version="1.0" encoding="UTF-8" standalone="no"?>
<svg
   width="150"
   zoomAndPan="magnify"
   viewBox="0 0 112.5 112.5"
   height="150"
   preserveAspectRatio="xMidYMid"
   version="1.0"
   id="svg62"
   xmlns="http://www.w3.org/2000/svg"
   xmlns:svg="http://www.w3.org/2000/svg">
  <defs
     id="defs4">
    <clipPath
       id="06c61eba1a">
      <path
         d="M 23.691406,10 H 88.652344 V 77 H 23.691406 Z m 0,0"
         clip-rule="nonzero"
         id="path2" />
    </clipPath>
    <clipPath
       id="565695920f">
      <path
         d="m 56,4 h 8.929688 V 15 H 56 Z m 0,0"
         clip-rule="nonzero"
         id="path3" />
    </clipPath>
    <clipPath
       id="16df0d5c66">
      <path
         d="m 60,16 h 4.929688 v 8 H 60 Z m 0,0"
         clip-rule="nonzero"
         id="path4" />
    </clipPath>
    <clipPath
       id="041fb43b16">
      <rect
         x="0"
         width="65"
         y="0"
         height="28"
         id="rect4" />
    </clipPath>
  </defs>
  <g
     clip-path="url(#06c61eba1a)"
     id="g7"
     style="display:inline">
    <path
       fill="#ff3131"
       d="m 23.691406,37.195312 c 0.324219,-0.789062 0.613282,-1.597656 0.972656,-2.371093 2.691407,-5.832031 6.796876,-10.425781 12.269532,-13.753907 5.949218,-3.621093 12.402344,-5.171874 19.359375,-4.378906 4.765625,0.546875 9.179687,2.121094 13.03125,4.988282 8.40625,6.253906 12.605469,14.585937 11.976562,25.15625 -0.214843,3.648437 -1.316406,7.070312 -3.101562,10.253906 C 75.628906,61.667969 71.980469,65.140625 67.292969,67.5 62.359375,69.984375 57.144531,70.859375 51.722656,69.707031 44.125,68.097656 38.695312,63.652344 35.488281,56.585938 33.570312,52.355469 33.128906,47.921875 34.183594,43.375 c 1.957031,-8.4375 9.15625,-14.128906 16.648437,-14.953125 3.699219,-0.40625 7.226563,0.175781 10.402344,2.101563 5.699219,3.453124 8.6875,8.496093 8.296875,15.261718 -0.203125,3.527344 -1.667969,6.566406 -4.296875,8.9375 -3.667969,3.3125 -7.898437,4.597656 -12.726563,2.984375 -4.667968,-1.554687 -7.660156,-6.441406 -7,-10.957031 0.519532,-3.566406 3.449219,-6.4375 7.042969,-6.714844 2.242188,-0.171875 4.441407,1.226563 5.167969,3.351563 0.179688,0.523437 0.105469,1.363281 0.02734,1.777343 L 57.617188,44.847656 C 56.546875,42.449219 52.851562,42.25 51.167969,44.089844 c -0.957031,1.046875 -1.316407,2.269531 -1.28125,3.664062 0.06641,2.789063 2.105469,5.207032 4.847656,5.6875 3.019531,0.53125 5.527344,-0.480468 7.566406,-2.65625 2.640625,-2.816406 3.109375,-7.195312 1.308594,-10.832031 -2.792969,-5.636719 -9.113281,-7.902344 -14.820313,-6.011719 -6.722656,2.226563 -10.832031,8.683594 -10.03125,15.761719 0.554688,4.890625 2.871094,8.855469 6.78125,11.820313 5.886719,4.464843 14.039063,4.800781 20.539063,0.941406 7.476563,-4.4375 11.367187,-12.582032 10.03125,-21.1875 -0.875,-5.617188 -3.515625,-10.316406 -7.828125,-14 C 62.457031,22.304688 55.664062,20.578125 48.195312,22.03125 40.421875,23.542969 34.5,27.828125 30.523438,34.601562 27.320312,40.054688 26.21875,46.46875 27.324219,52.699219 c 1.25,7.0625 4.695312,12.875 10.15625,17.457031 4.382812,3.679688 9.457031,5.8125 15.140625,6.527344 3.433594,0.433594 6.832031,0.257812 10.199218,-0.480469 4.800782,-1.054687 9.152344,-3.097656 12.988282,-6.171875 7.871094,-6.316406 11.945312,-14.570312 12.351562,-24.625 0.140625,-3.472656 -0.378906,-6.886719 -1.355468,-10.226562 -1.558594,-5.316407 -4.207032,-10.035157 -7.976563,-14.085938 -0.0625,-0.06641 -0.125,-0.132812 -0.183594,-0.199219 C 64.054688,5.425781 38.625,8.191406 27.902344,26.550781 24.574219,32.242188 23.691406,37.195312 23.691406,37.195312 Z m 0,0"
       fill-opacity="1"
       fill-rule="nonzero"
       id="path7" />
  </g>
  <g
     transform="translate(23,76)"
     id="g62"
     style="display:inline">
    <g
       clip-path="url(#041fb43b16)"
       id="g61">
      <g
         fill="#000000"
         fill-opacity="1"
         id="g10">
        <g
           transform="translate(1.414381,14.103814)"
           id="g9">
          <g
             id="g8">
            <path
               d="M 10.03125,-9.671875 V 0 h -2.25 V -3.96875 H 3.390625 V 0 h -2.25 v -9.671875 h 2.25 v 3.8125 H 7.78125 v -3.8125 z m 0,0"
               id="path8" />
          </g>
        </g>
      </g>
      <g
         fill="#000000"
         fill-opacity="1"
         id="g13">
        <g
           transform="translate(11.509059,14.103814)"
           id="g12">
          <g
             id="g11">
            <path
               d="m 1.140625,-9.671875 h 2.25 V 0 h -2.25 z m 0,0"
               id="path10" />
          </g>
        </g>
      </g>
      <g
         fill="#000000"
         fill-opacity="1"
         id="g16">
        <g
           transform="translate(14.966086,14.103814)"
           id="g15">
          <g
             id="g14">
            <path
               d="m 5.34375,-9.671875 c 0.851562,0 1.59375,0.140625 2.21875,0.421875 0.632812,0.28125 1.125,0.6875 1.46875,1.21875 0.34375,0.523438 0.515625,1.140625 0.515625,1.859375 0,0.710937 -0.171875,1.328125 -0.515625,1.859375 C 8.6875,-3.78125 8.195312,-3.375 7.5625,-3.09375 6.9375,-2.8125 6.195312,-2.671875 5.34375,-2.671875 H 3.390625 V 0 h -2.25 V -9.671875 Z M 5.21875,-4.5 c 0.664062,0 1.175781,-0.140625 1.53125,-0.421875 0.351562,-0.289063 0.53125,-0.707031 0.53125,-1.25 0,-0.539063 -0.179688,-0.957031 -0.53125,-1.25 -0.355469,-0.289063 -0.867188,-0.4375 -1.53125,-0.4375 H 3.390625 V -4.5 Z m 0,0"
               id="path13" />
          </g>
        </g>
      </g>
      <g
         fill="#000000"
         fill-opacity="1"
         id="g19">
        <g
           transform="translate(23.871516,14.103814)"
           id="g18">
          <g
             id="g17">
            <path
               d="M 10.03125,-9.671875 V 0 H 8.1875 L 3.359375,-5.875 V 0 H 1.140625 V -9.671875 H 3 l 4.8125,5.875 v -5.875 z m 0,0"
               id="path16" />
          </g>
        </g>
      </g>
      <g
         fill="#000000"
         fill-opacity="1"
         id="g22">
        <g
           transform="translate(33.966195,14.103814)"
           id="g21">
          <g
             id="g20">
            <path
               d="m 5.828125,0.171875 c -1,0 -1.90625,-0.21875 -2.71875,-0.65625 C 2.304688,-0.921875 1.675781,-1.519531 1.21875,-2.28125 0.769531,-3.039062 0.546875,-3.894531 0.546875,-4.84375 c 0,-0.945312 0.222656,-1.800781 0.671875,-2.5625 0.457031,-0.757812 1.085938,-1.351562 1.890625,-1.78125 0.8125,-0.4375 1.71875,-0.65625 2.71875,-0.65625 1.007813,0 1.914063,0.21875 2.71875,0.65625 0.800781,0.429688 1.429687,1.023438 1.890625,1.78125 0.457031,0.761719 0.6875,1.617188 0.6875,2.5625 0,0.949219 -0.230469,1.804688 -0.6875,2.5625 -0.460938,0.761719 -1.089844,1.359375 -1.890625,1.796875 -0.804687,0.4375 -1.710937,0.65625 -2.71875,0.65625 z m 0,-1.921875 c 0.570313,0 1.085937,-0.128906 1.546875,-0.390625 0.46875,-0.257813 0.832031,-0.625 1.09375,-1.09375 0.257812,-0.46875 0.390625,-1.003906 0.390625,-1.609375 0,-0.59375 -0.132813,-1.125 -0.390625,-1.59375 C 8.207031,-6.914062 7.84375,-7.285156 7.375,-7.546875 6.914062,-7.804688 6.398438,-7.9375 5.828125,-7.9375 c -0.5625,0 -1.078125,0.132812 -1.546875,0.390625 -0.460938,0.261719 -0.820312,0.632813 -1.078125,1.109375 -0.261719,0.46875 -0.390625,1 -0.390625,1.59375 0,0.605469 0.128906,1.140625 0.390625,1.609375 0.257813,0.46875 0.617187,0.835937 1.078125,1.09375 C 4.75,-1.878906 5.265625,-1.75 5.828125,-1.75 Z m 0,0"
               id="path19" />
          </g>
        </g>
      </g>
      <g
         fill="#000000"
         fill-opacity="1"
         id="g25">
        <g
           transform="translate(44.558696,14.103814)"
           id="g24">
          <g
             id="g23">
            <path
               d="m 4.328125,0.171875 c -0.761719,0 -1.5,-0.1054688 -2.21875,-0.3125 -0.71875,-0.207031 -1.292969,-0.476563 -1.71875,-0.8125 l 0.75,-1.6875 c 0.414063,0.304687 0.910156,0.546875 1.484375,0.734375 0.570312,0.1875 1.144531,0.28125 1.71875,0.28125 0.632812,0 1.101562,-0.09375 1.40625,-0.28125 0.300781,-0.195312 0.453125,-0.453125 0.453125,-0.765625 0,-0.226563 -0.089844,-0.414063 -0.265625,-0.5625 -0.179688,-0.15625 -0.40625,-0.28125 -0.6875,-0.375 -0.28125,-0.09375 -0.664062,-0.191406 -1.140625,-0.296875 -0.742187,-0.175781 -1.34375,-0.351562 -1.8125,-0.53125 -0.46875,-0.175781 -0.875,-0.457031 -1.21875,-0.84375 -0.335937,-0.382812 -0.5,-0.898438 -0.5,-1.546875 0,-0.5625 0.148437,-1.070313 0.453125,-1.53125 0.3125,-0.457031 0.769531,-0.816406 1.375,-1.078125 0.613281,-0.269531 1.363281,-0.40625 2.25,-0.40625 0.625,0 1.226562,0.074219 1.8125,0.21875 0.59375,0.148438 1.109375,0.359375 1.546875,0.640625 l -0.6875,1.703125 c -0.898437,-0.507812 -1.792969,-0.765625 -2.6875,-0.765625 -0.625,0 -1.089844,0.105469 -1.390625,0.3125 -0.292969,0.199219 -0.4375,0.464844 -0.4375,0.796875 0,0.335938 0.171875,0.585938 0.515625,0.75 0.34375,0.15625 0.867187,0.3125 1.578125,0.46875 0.738281,0.167969 1.34375,0.339844 1.8125,0.515625 0.46875,0.179687 0.867188,0.460937 1.203125,0.84375 0.34375,0.375 0.515625,0.886719 0.515625,1.53125 0,0.554687 -0.15625,1.058594 -0.46875,1.515625 -0.304688,0.449219 -0.765625,0.808594 -1.390625,1.078125 -0.617187,0.2695312 -1.367187,0.40625 -2.25,0.40625 z m 0,0"
               id="path22" />
          </g>
        </g>
      </g>
      <g
         fill="#000000"
         fill-opacity="1"
         id="g28">
        <g
           transform="translate(52.302541,14.103814)"
           id="g27">
          <g
             id="g26">
            <path
               d="m 1.140625,-9.671875 h 2.25 V 0 h -2.25 z m 0,0"
               id="path25" />
          </g>
        </g>
      </g>
      <g
         clip-path="url(#565695920f)"
         id="g32">
        <g
           fill="#000000"
           fill-opacity="1"
           id="g31">
          <g
             transform="translate(55.759567,14.103814)"
             id="g30">
            <g
               id="g29">
              <path
                 d="m 4.328125,0.171875 c -0.761719,0 -1.5,-0.1054688 -2.21875,-0.3125 -0.71875,-0.207031 -1.292969,-0.476563 -1.71875,-0.8125 l 0.75,-1.6875 c 0.414063,0.304687 0.910156,0.546875 1.484375,0.734375 0.570312,0.1875 1.144531,0.28125 1.71875,0.28125 0.632812,0 1.101562,-0.09375 1.40625,-0.28125 0.300781,-0.195312 0.453125,-0.453125 0.453125,-0.765625 0,-0.226563 -0.089844,-0.414063 -0.265625,-0.5625 -0.179688,-0.15625 -0.40625,-0.28125 -0.6875,-0.375 -0.28125,-0.09375 -0.664062,-0.191406 -1.140625,-0.296875 -0.742187,-0.175781 -1.34375,-0.351562 -1.8125,-0.53125 -0.46875,-0.175781 -0.875,-0.457031 -1.21875,-0.84375 -0.335937,-0.382812 -0.5,-0.898438 -0.5,-1.546875 0,-0.5625 0.148437,-1.070313 0.453125,-1.53125 0.3125,-0.457031 0.769531,-0.816406 1.375,-1.078125 0.613281,-0.269531 1.363281,-0.40625 2.25,-0.40625 0.625,0 1.226562,0.074219 1.8125,0.21875 0.59375,0.148438 1.109375,0.359375 1.546875,0.640625 l -0.6875,1.703125 c -0.898437,-0.507812 -1.792969,-0.765625 -2.6875,-0.765625 -0.625,0 -1.089844,0.105469 -1.390625,0.3125 -0.292969,0.199219 -0.4375,0.464844 -0.4375,0.796875 0,0.335938 0.171875,0.585938 0.515625,0.75 0.34375,0.15625 0.867187,0.3125 1.578125,0.46875 0.738281,0.167969 1.34375,0.339844 1.8125,0.515625 0.46875,0.179687 0.867188,0.460937 1.203125,0.84375 0.34375,0.375 0.515625,0.886719 0.515625,1.53125 0,0.554687 -0.15625,1.058594 -0.46875,1.515625 -0.304688,0.449219 -0.765625,0.808594 -1.390625,1.078125 -0.617187,0.2695312 -1.367187,0.40625 -2.25,0.40625 z m 0,0"
                 id="path28" />
            </g>
          </g>
        </g>
      </g>
      <g
         fill="#000000"
         fill-opacity="1"
         id="g35">
        <g
           transform="translate(0.977508,23.57409)"
           id="g34">
          <g
             id="g33">
            <path
               d="m 5.65625,0.15625 c -0.96875,0 -1.84375,-0.2070312 -2.625,-0.625 -0.773438,-0.414062 -1.382812,-0.992188 -1.828125,-1.734375 -0.449219,-0.75 -0.671875,-1.59375 -0.671875,-2.53125 0,-0.9375 0.222656,-1.773437 0.671875,-2.515625 C 1.648438,-8 2.257812,-8.582031 3.03125,-9 3.8125,-9.425781 4.691406,-9.640625 5.671875,-9.640625 c 0.820313,0 1.5625,0.148437 2.21875,0.4375 0.664063,0.292969 1.222656,0.710937 1.671875,1.25 L 8.15625,-6.65625 c -0.636719,-0.738281 -1.429688,-1.109375 -2.375,-1.109375 -0.59375,0 -1.121094,0.132813 -1.578125,0.390625 -0.460937,0.25 -0.820313,0.609375 -1.078125,1.078125 -0.25,0.460937 -0.375,0.980469 -0.375,1.5625 0,0.585937 0.125,1.109375 0.375,1.578125 0.257812,0.460938 0.617188,0.820312 1.078125,1.078125 0.457031,0.25 0.984375,0.375 1.578125,0.375 0.945312,0 1.738281,-0.375 2.375,-1.125 L 9.5625,-1.53125 C 9.113281,-0.976562 8.554688,-0.554688 7.890625,-0.265625 7.222656,0.015625 6.476562,0.15625 5.65625,0.15625 Z m 0,0"
               id="path32" />
          </g>
        </g>
      </g>
      <g
         fill="#000000"
         fill-opacity="1"
         id="g38">
        <g
           transform="translate(9.581085,23.57409)"
           id="g37">
          <g
             id="g36">
            <path
               d="M 4.4375,0.109375 C 3.664062,0.109375 2.976562,-0.0507812 2.375,-0.375 1.769531,-0.695312 1.296875,-1.140625 0.953125,-1.703125 0.609375,-2.273438 0.4375,-2.921875 0.4375,-3.640625 0.4375,-4.359375 0.609375,-5 0.953125,-5.5625 1.296875,-6.132812 1.769531,-6.582031 2.375,-6.90625 c 0.601562,-0.320312 1.289062,-0.484375 2.0625,-0.484375 0.769531,0 1.457031,0.164063 2.0625,0.484375 0.601562,0.324219 1.078125,0.773438 1.421875,1.34375 C 8.265625,-5 8.4375,-4.359375 8.4375,-3.640625 c 0,0.71875 -0.171875,1.367187 -0.515625,1.9375 C 7.578125,-1.140625 7.101562,-0.695312 6.5,-0.375 5.894531,-0.0507812 5.207031,0.109375 4.4375,0.109375 Z m 0,-1.734375 c 0.539062,0 0.984375,-0.179688 1.328125,-0.546875 0.351563,-0.363281 0.53125,-0.851563 0.53125,-1.46875 0,-0.613281 -0.179687,-1.101563 -0.53125,-1.46875 C 5.421875,-5.472656 4.976562,-5.65625 4.4375,-5.65625 c -0.542969,0 -0.992188,0.183594 -1.34375,0.546875 -0.34375,0.367187 -0.515625,0.855469 -0.515625,1.46875 0,0.617187 0.171875,1.105469 0.515625,1.46875 C 3.445312,-1.804688 3.894531,-1.625 4.4375,-1.625 Z m 0,0"
               id="path35" />
          </g>
        </g>
      </g>
      <g
         fill="#000000"
         fill-opacity="1"
         id="g41">
        <g
           transform="translate(17.385006,23.57409)"
           id="g40">
          <g
             id="g39">
            <path
               d="m 5.40625,-7.390625 c 0.894531,0 1.617188,0.273437 2.171875,0.8125 0.5625,0.542969 0.84375,1.34375 0.84375,2.40625 V 0 H 6.3125 v -3.84375 c 0,-0.570312 -0.132812,-1 -0.390625,-1.28125 -0.25,-0.289062 -0.617187,-0.4375 -1.09375,-0.4375 -0.53125,0 -0.960937,0.167969 -1.28125,0.5 -0.3125,0.324219 -0.46875,0.8125 -0.46875,1.46875 V 0 H 0.96875 v -7.28125 h 2.015625 v 0.859375 c 0.28125,-0.3125 0.628906,-0.550781 1.046875,-0.71875 0.414062,-0.164063 0.875,-0.25 1.375,-0.25 z m 0,0"
               id="path38" />
          </g>
        </g>
      </g>
      <g
         fill="#000000"
         fill-opacity="1"
         id="g44">
        <g
           transform="translate(25.675843,23.57409)"
           id="g43">
          <g
             id="g42" />
        </g>
      </g>
      <g
         fill="#000000"
         fill-opacity="1"
         id="g47">
        <g
           transform="translate(28.448294,23.57409)"
           id="g46">
          <g
             id="g45">
            <path
               d="m 5.703125,0.15625 c -0.980469,0 -1.867187,-0.2070312 -2.65625,-0.625 -0.78125,-0.425781 -1.398437,-1.007812 -1.84375,-1.75 -0.449219,-0.75 -0.671875,-1.585938 -0.671875,-2.515625 0,-0.925781 0.222656,-1.757813 0.671875,-2.5 0.445313,-0.75 1.0625,-1.335937 1.84375,-1.765625 0.789063,-0.425781 1.675781,-0.640625 2.65625,-0.640625 0.988281,0 1.875,0.214844 2.65625,0.640625 0.789063,0.429688 1.410156,1.015625 1.859375,1.765625 0.445312,0.742187 0.671875,1.574219 0.671875,2.5 0,0.929687 -0.226563,1.765625 -0.671875,2.515625 -0.449219,0.742188 -1.070312,1.324219 -1.859375,1.75 -0.78125,0.4179688 -1.667969,0.625 -2.65625,0.625 z m 0,-1.859375 c 0.5625,0 1.066406,-0.125 1.515625,-0.375 0.457031,-0.257813 0.8125,-0.617187 1.0625,-1.078125 0.257812,-0.46875 0.390625,-0.992188 0.390625,-1.578125 0,-0.582031 -0.132813,-1.101563 -0.390625,-1.5625 C 8.03125,-6.765625 7.675781,-7.125 7.21875,-7.375 6.769531,-7.632812 6.265625,-7.765625 5.703125,-7.765625 c -0.554687,0 -1.058594,0.132813 -1.515625,0.390625 -0.449219,0.25 -0.804688,0.609375 -1.0625,1.078125 -0.25,0.460937 -0.375,0.980469 -0.375,1.5625 0,0.585937 0.125,1.109375 0.375,1.578125 0.257812,0.460938 0.613281,0.820312 1.0625,1.078125 0.457031,0.25 0.960938,0.375 1.515625,0.375 z m 0,0"
               id="path44" />
          </g>
        </g>
      </g>
      <g
         fill="#000000"
         fill-opacity="1"
         id="g50">
        <g
           transform="translate(38.808528,23.57409)"
           id="g49">
          <g
             id="g48">
            <path
               d="m 3.421875,0.109375 c -0.605469,0 -1.199219,-0.0742188 -1.78125,-0.21875 -0.574219,-0.15625 -1.03125,-0.34375 -1.375,-0.5625 L 0.96875,-2.1875 c 0.332031,0.210938 0.726562,0.382812 1.1875,0.515625 0.457031,0.125 0.90625,0.1875 1.34375,0.1875 0.894531,0 1.34375,-0.222656 1.34375,-0.671875 0,-0.207031 -0.125,-0.351562 -0.375,-0.4375 C 4.226562,-2.6875 3.859375,-2.765625 3.359375,-2.828125 2.765625,-2.921875 2.269531,-3.023438 1.875,-3.140625 1.488281,-3.253906 1.15625,-3.457031 0.875,-3.75 0.59375,-4.050781 0.453125,-4.476562 0.453125,-5.03125 0.453125,-5.488281 0.582031,-5.894531 0.84375,-6.25 1.113281,-6.613281 1.503906,-6.894531 2.015625,-7.09375 2.523438,-7.289062 3.125,-7.390625 3.8125,-7.390625 c 0.519531,0 1.03125,0.058594 1.53125,0.171875 0.507812,0.117188 0.929688,0.273438 1.265625,0.46875 L 5.90625,-5.25 C 5.269531,-5.613281 4.570312,-5.796875 3.8125,-5.796875 c -0.449219,0 -0.789062,0.070313 -1.015625,0.203125 -0.21875,0.125 -0.328125,0.289062 -0.328125,0.484375 0,0.21875 0.117188,0.375 0.359375,0.46875 0.238281,0.09375 0.625,0.179687 1.15625,0.25 0.601563,0.105469 1.09375,0.214844 1.46875,0.328125 0.375,0.117188 0.703125,0.324219 0.984375,0.625 0.28125,0.292969 0.421875,0.703125 0.421875,1.234375 0,0.449219 -0.136719,0.851563 -0.40625,1.203125 -0.273437,0.355469 -0.667969,0.632812 -1.1875,0.828125 -0.511719,0.1875 -1.125,0.28125 -1.84375,0.28125 z m 0,0"
               id="path47" />
          </g>
        </g>
      </g>
      <g
         fill="#000000"
         fill-opacity="1"
         id="g53">
        <g
           transform="translate(44.935294,23.57409)"
           id="g52">
          <g
             id="g51">
            <path
               d="M 4.5,0.109375 C 3.71875,0.109375 3.015625,-0.0507812 2.390625,-0.375 1.773438,-0.695312 1.296875,-1.140625 0.953125,-1.703125 0.609375,-2.273438 0.4375,-2.921875 0.4375,-3.640625 0.4375,-4.359375 0.609375,-5 0.953125,-5.5625 c 0.34375,-0.570312 0.820313,-1.019531 1.4375,-1.34375 0.625,-0.320312 1.328125,-0.484375 2.109375,-0.484375 0.757812,0 1.425781,0.164063 2,0.484375 0.570312,0.324219 0.988281,0.78125 1.25,1.375 l -1.640625,0.875 c -0.375,-0.664062 -0.917969,-1 -1.625,-1 -0.554687,0 -1.011719,0.183594 -1.375,0.546875 -0.355469,0.355469 -0.53125,0.84375 -0.53125,1.46875 0,0.625 0.175781,1.121094 0.53125,1.484375 0.363281,0.355469 0.820313,0.53125 1.375,0.53125 0.71875,0 1.257813,-0.332031 1.625,-1 L 7.75,-1.734375 C 7.488281,-1.148438 7.070312,-0.695312 6.5,-0.375 5.925781,-0.0507812 5.257812,0.109375 4.5,0.109375 Z m 0,0"
               id="path50" />
          </g>
        </g>
      </g>
      <g
         fill="#000000"
         fill-opacity="1"
         id="g56">
        <g
           transform="translate(51.873585,23.57409)"
           id="g55">
          <g
             id="g54">
            <path
               d="m 3.90625,-7.390625 c 1.132812,0 2.003906,0.273437 2.609375,0.8125 0.601563,0.53125 0.90625,1.339844 0.90625,2.421875 V 0 H 5.4375 v -0.90625 c -0.398438,0.679688 -1.136719,1.015625 -2.21875,1.015625 -0.5625,0 -1.046875,-0.09375 -1.453125,-0.28125 -0.40625,-0.1875 -0.71875,-0.445313 -0.9375,-0.78125 C 0.609375,-1.296875 0.5,-1.675781 0.5,-2.09375 0.5,-2.769531 0.753906,-3.300781 1.265625,-3.6875 1.773438,-4.082031 2.5625,-4.28125 3.625,-4.28125 h 1.671875 c 0,-0.457031 -0.140625,-0.804688 -0.421875,-1.046875 -0.273438,-0.25 -0.6875,-0.375 -1.25,-0.375 -0.386719,0 -0.765625,0.0625 -1.140625,0.1875 -0.375,0.117187 -0.695313,0.277344 -0.953125,0.484375 L 0.765625,-6.515625 C 1.160156,-6.785156 1.632812,-7 2.1875,-7.15625 2.75,-7.3125 3.320312,-7.390625 3.90625,-7.390625 Z M 3.75,-1.3125 c 0.363281,0 0.679688,-0.082031 0.953125,-0.25 0.28125,-0.164062 0.476563,-0.410156 0.59375,-0.734375 v -0.75 h -1.4375 c -0.867187,0 -1.296875,0.289063 -1.296875,0.859375 0,0.273438 0.101562,0.484375 0.3125,0.640625 0.207031,0.15625 0.5,0.234375 0.875,0.234375 z m 0,0"
               id="path53" />
          </g>
        </g>
      </g>
      <g
         clip-path="url(#16df0d5c66)"
         id="g60">
        <g
           fill="#000000"
           fill-opacity="1"
           id="g59">
          <g
             transform="translate(59.16354,23.57409)"
             id="g58">
            <g
               id="g57">
              <path
                 d="M 2.984375,-6.3125 C 3.242188,-6.664062 3.585938,-6.929688 4.015625,-7.109375 4.441406,-7.296875 4.9375,-7.390625 5.5,-7.390625 V -5.4375 C 5.257812,-5.457031 5.097656,-5.46875 5.015625,-5.46875 4.410156,-5.46875 3.9375,-5.296875 3.59375,-4.953125 3.25,-4.617188 3.078125,-4.113281 3.078125,-3.4375 V 0 H 0.96875 v -7.28125 h 2.015625 z m 0,0"
                 id="path56" />
            </g>
          </g>
        </g>
      </g>
    </g>
  </g>
</svg>
